<?xml version="1.0" encoding="utf-8"?>
<!-- Generator: Adobe Illustrator 27.5.0, SVG Export Plug-In . SVG Version: 6.00 Build 0)  -->
<svg version="1.1" xmlns="http://www.w3.org/2000/svg" xmlns:xlink="http://www.w3.org/1999/xlink" x="0px" y="0px"
	 viewBox="0 0 750 500" style="enable-background:new 0 0 750 500;" xml:space="preserve">
<g id="BACKGROUND">
	<path style="fill:#2B0C40;" d="M746.324,500H3.676C1.646,500,0,498.354,0,496.324V3.676C0,1.646,1.646,0,3.676,0h742.649
		C748.354,0,750,1.646,750,3.676v492.649C750,498.354,748.354,500,746.324,500z"/>
</g>
<g id="OBJECTS">
	<g>
		<g>
			<rect x="103.027" y="59.226" style="fill:#49146E;" width="175.193" height="140.611"/>
			<g>
				<path style="fill:#7621B3;" d="M278.22,59.226v140.611H103.027V59.226H278.22 M288.22,49.226h-10H103.027h-10v10v140.611v10h10
					H278.22h10v-10V59.226V49.226L288.22,49.226z"/>
			</g>
		</g>
		<g>
			<rect x="68.197" y="53.174" style="fill:#3B1059;" width="248.392" height="18.162"/>
			<rect x="68.197" y="86.58" style="fill:#3B1059;" width="248.392" height="18.162"/>
			<rect x="68.197" y="119.985" style="fill:#3B1059;" width="248.392" height="18.162"/>
			<rect x="68.197" y="153.391" style="fill:#3B1059;" width="248.392" height="18.162"/>
			<rect x="68.197" y="186.796" style="fill:#3B1059;" width="248.392" height="18.162"/>
			<rect x="86.083" y="62.256" style="fill:#3B1059;" width="2.503" height="138.162"/>
			<rect x="94.842" y="62.256" style="fill:#3B1059;" width="2.503" height="138.162"/>
			<rect x="284.403" y="62.256" style="fill:#3B1059;" width="2.502" height="138.162"/>
			<rect x="293.162" y="62.256" style="fill:#3B1059;" width="2.502" height="138.162"/>
		</g>
	</g>
	<rect x="240.713" y="301.387" style="fill:#FF96BE;" width="11.595" height="26.343"/>
	<g>
		<path style="fill:#FF96BE;" d="M176.98,184.838h55.639c6.468,0,12.253,4.023,14.505,10.086l32.509,87.542
			c3.753,10.107-3.723,20.859-14.505,20.859h-55.639c-6.468,0-12.253-4.023-14.505-10.086l-32.509-87.542
			C158.722,195.589,166.198,184.838,176.98,184.838z"/>
		<g>
			<g>
				<g>
					<g>
						<g>
							<path style="fill:#4AA6FF;" d="M419.124,282.45l2.568-8.308c0.483-1.564,1.918-2.626,3.554-2.662
								c2.962-0.066,7.444-0.542,8.662-2.733c1.734-3.119,2.579-15.279,11.995-11.925c1.362,0.485,2.141,1.925,1.864,3.344
								c-0.932,4.788-3.486,15.516-7.973,17.64c-5.815,2.753-9.032,6.723-10.981,9.222c-1.555,1.994-5.343,1.718-8.315-0.408
								C419.188,285.682,418.648,283.99,419.124,282.45z"/>
							<path style="fill:#FFAF91;" d="M414.808,270.473l6.778,2.845c1.913,0.803,2.93,2.902,2.375,4.901l-0.602,2.167
								c-0.536,1.928-2.38,3.193-4.372,2.997l-10.554-1.036L414.808,270.473z"/>
						</g>
						<g>
							<path style="fill:#4AA6FF;" d="M419.124,282.45l2.568-8.308c0.483-1.564,1.918-2.626,3.554-2.662
								c2.962-0.066,7.444-0.542,8.662-2.733c1.734-3.119,2.579-15.279,11.995-11.925c1.362,0.485,2.141,1.925,1.864,3.344
								c-0.932,4.788-3.486,15.516-7.973,17.64c-5.815,2.753-9.032,6.723-10.981,9.222c-1.555,1.994-5.343,1.718-8.315-0.408
								C419.188,285.682,418.648,283.99,419.124,282.45z"/>
						</g>
						<path style="fill:#FFFFFF;" d="M445.904,256.822c-0.283-0.101-0.558-0.186-0.825-0.26c0.815,0.673,1.227,1.768,1.015,2.856
							c-0.932,4.788-3.486,15.516-7.973,17.64c-5.815,2.753-9.032,6.723-10.981,9.222c-1.124,1.441-3.414,1.681-5.719,0.91
							c2.793,1.575,5.995,1.631,7.394-0.162c1.949-2.5,5.166-6.469,10.981-9.222c4.487-2.124,7.04-12.852,7.973-17.64
							C448.044,258.746,447.266,257.307,445.904,256.822z"/>
						<path style="fill:#3F8FDB;" d="M438.514,261.896c0.714-1.533,1.592-3.176,3.162-3.804c0.468-0.187,1.037-0.258,1.449,0.033
							c0.549,0.388,0.55,1.21,0.344,1.851c-0.956,2.981-4.778,4.324-5.699,7.317c-0.142,0.464-0.208,0.952-0.408,1.394
							c-0.247,0.546-1.205,1.386-1.745,0.625c-0.345-0.487,0.319-1.45,0.511-1.926C436.876,265.536,437.672,263.705,438.514,261.896
							z"/>
					</g>
					<path style="fill:#7B35A6;" d="M335.609,264.877l-90.596,51.563c-10.745,6.116-24.133,2.556-29.12-7.744v0
						c-5.036-10.401,0.633-23.231,12.266-27.76l97.126-37.808c6.308-2.455,13.248-0.011,15.978,5.629l0,0
						C344.023,254.457,341.555,261.493,335.609,264.877z"/>
					<path style="fill:#7B35A6;" d="M413.329,287.453l-84.803-26.666c-5.012-1.576-7.798-6.917-6.222-11.93l0,0
						c1.576-5.012,6.917-7.798,11.93-6.222l84.697,26.633c1.457,0.458,2.266,2.01,1.808,3.467l-4.082,12.982
						C416.217,287.116,414.727,287.893,413.329,287.453z"/>
					<path style="fill:#5E2880;" d="M419.628,274.185c-1.129-2.724-3.872-4.616-7.528-6.015c-7.817-2.992-15.969-4.272-23.92-6.569
						c-8.661-2.501-17.267-5.181-25.969-7.54c-4.629-1.255-9.332-2.526-14.082-3.257c-5.226-0.804-9.784,0.315-14.885,0.315
						c-30.93,7.244-58.191,25.283-88.043,35.714c-11.093,3.876-21.166,7.594-31.141,13.389c-0.064,2.863,0.515,5.751,1.833,8.474
						c0.183,0.378,0.4,0.727,0.605,1.087c0.467-0.305,0.954-0.586,1.48-0.817c10.405-4.565,21.061-8.438,31.618-12.621
						c8.82-3.495,17.54-8.159,26.31-12.408c9.844-4.769,19.79-9.328,29.828-13.674c7.305-3.163,14.615-6.928,22.196-9.697
						c0.701-0.256,1.406-0.503,2.112-0.741c0.055-0.019,0.111-0.038,0.166-0.056c0.633-0.212,1.27-0.414,1.907-0.609
						c0.122-0.037,0.244-0.077,0.366-0.113c0.584-0.175,1.17-0.339,1.758-0.499c0.158-0.043,0.314-0.089,0.472-0.131
						c0.727-0.191,1.456-0.371,2.189-0.534c7.818-1.743,16.461,3.161,18.113,11.217c17.921,5.664,35.843,11.327,53.764,16.99
						c1.853,0.586,3.835,1.175,5.708,0.656c2.169-0.601,3.697-2.58,4.569-4.656C420.411,278.862,420.495,276.278,419.628,274.185z"
						/>
				</g>
				<g>
					<path style="fill:#9B44D1;" d="M347.233,274.745l-89.643,53.203c-10.632,6.31-24.082,2.994-29.256-7.213v0
						c-5.225-10.307,0.21-23.239,11.759-27.978l96.422-39.568c6.262-2.57,13.245-0.251,16.078,5.338l0,0
						C355.456,264.174,353.116,271.253,347.233,274.745z"/>
					<path style="fill:#9B44D1;" d="M225.499,291.649h44.556v31.752h-44.556c-8.112,0-14.688-6.576-14.688-14.688v-2.376
						C210.811,298.224,217.387,291.649,225.499,291.649z"/>
				</g>
			</g>
			<g>
				<path style="fill:#4AA6FF;" d="M218.214,192.358L218.214,192.358c-22.773,0-39.044,19.372-32.334,38.498l25.188,71.793
					l51.346-35.047l-11.866-54.27C246.174,200.863,233.061,192.358,218.214,192.358z"/>
				<path style="fill:#75BCFF;" d="M226.34,292.225l36.074-24.623c0,0,11.045-7.251,6.775,5.236
					c-1.799,5.26-12.108,3.155-13.189,9.253c-1.081,6.098,2.778,8.693-3.692,11.72C245.838,296.838,227.167,294.315,226.34,292.225z
					"/>
				<g>
					<g>
						<path style="fill:#FFAF91;" d="M152.486,190.662l21.338-35.772l-9.457-5.769l-23.394,35.582
							C145.655,187.284,147.671,188.329,152.486,190.662z"/>
					</g>
					<path style="fill:#4AA6FF;" d="M140.772,213.406l13.02-21.345c0.376-0.616,0.154-1.422-0.485-1.759L141.341,184
						c-0.585-0.308-1.308-0.108-1.652,0.456l-13.554,22.221c-2.778,4.554-3.125,10.288-0.586,14.979
						c2.547,4.705,7.267,7.585,12.61,7.698l62.679,11.449l0.556-26.105L140.772,213.406z"/>
				</g>
				<g>
					<g>
						<path style="fill:#FFAF91;" d="M244.162,142.27l-45.886,0.833l-0.505,11.564l46.397,0.656
							C244.66,150.051,244.285,147.655,244.162,142.27z"/>
					</g>
					<path style="fill:#4AA6FF;" d="M273.486,149.191c-2.493-4.68-7.423-7.553-12.721-7.784l-16.662-0.728
						c-0.776-0.034-1.431,0.57-1.459,1.346l-0.489,13.192c-0.028,0.769,0.569,1.416,1.337,1.45l14.722,0.644l-28.983,46.014
						l20.35,22.669l23.371-62.061C275.794,159.422,275.995,153.902,273.486,149.191z"/>
				</g>
			</g>
			<g>
				<g>
					<path style="fill:#1E4266;" d="M191.806,184.968c-1.232,0.76-2.505,1.561-3.283,2.781c-0.964,1.513-1.009,3.414-1.024,5.208
						c-0.024,2.83,0.155,6.095,2.411,7.804c1.483,1.123,3.484,1.236,5.343,1.173c6.681-0.227,13.297-2.166,19.043-5.581
						c2.026-1.204,4.024-2.68,5.042-4.806c1.752-3.66-0.107-8.337-3.455-10.628C208.413,175.808,198.46,180.861,191.806,184.968z"/>
					<path style="fill:#1E4266;" d="M213.919,140.057c3.336,4.276,5.441,9.404,8.759,13.694c1.69,2.185,3.726,4.21,4.629,6.821
						c2.275,6.577-3.442,13.998-1.045,20.532c1.451,3.953,5.641,6.685,6.226,10.855c0.374,2.673-0.799,5.672,0.643,7.954
						c1.043,1.651,3.172,2.364,4.217,4.013c1.148,1.811,0.585,4.374-0.958,5.864c-1.542,1.489-3.834,2.007-5.967,1.794
						c-3.986-0.398-7.61-3.308-8.86-7.114c-1.149-3.499-0.612-7.877-3.388-10.297c-1.775-1.548-4.471-1.789-6.077-3.512
						c-1.877-2.013-1.52-5.277-0.323-7.755c1.197-2.479,3.081-4.598,4.097-7.156c1.994-5.019,0.256-10.854-2.828-15.287
						c-3.084-4.433-7.375-7.854-11.212-11.654c-2.254-2.232-4.43-4.728-5.279-7.785c-1.161-4.181,0.529-8.45,5.102-8.013
						C206.695,133.493,210.824,136.091,213.919,140.057z"/>
					<path style="fill:#162E47;" d="M237.348,203.927c-1.045-1.649-3.175-2.363-4.217-4.013c-1.442-2.282-0.268-5.281-0.643-7.954
						c-0.584-4.17-4.775-6.902-6.226-10.855c-2.398-6.533,3.32-13.955,1.045-20.532c-0.903-2.611-2.939-4.635-4.629-6.821
						c-3.318-4.29-5.423-9.419-8.759-13.694c-3.095-3.966-7.224-6.565-12.263-7.046c-1.894-0.181-3.285,0.453-4.192,1.545
						c0.33-0.023,0.671-0.028,1.038,0.007c5.039,0.481,9.168,3.08,12.263,7.046c3.336,4.276,5.441,9.404,8.759,13.694
						c1.69,2.185,3.726,4.21,4.629,6.821c2.275,6.577-3.443,13.998-1.045,20.532c1.451,3.953,5.641,6.685,6.226,10.855
						c0.374,2.673-0.799,5.672,0.643,7.954c1.043,1.651,3.172,2.364,4.217,4.013c1.148,1.811,0.585,4.374-0.958,5.864
						c-0.037,0.036-0.079,0.064-0.117,0.098c1.224-0.257,2.376-0.785,3.272-1.65C237.933,208.301,238.496,205.737,237.348,203.927z"
						/>
				</g>
				<path style="fill:#FF9873;" d="M198.121,188.312l12.901-4.487l5.156,14.827c1.202,3.455-0.625,7.229-4.08,8.431l-0.39,0.136
					c-3.455,1.201-7.229-0.625-8.431-4.08L198.121,188.312z"/>
				<path style="fill:#FFAF91;" d="M207.058,190.84L207.058,190.84c-10.859,4.575-23.371-0.519-27.946-11.378l-5.149-12.221
					c-4.575-10.859,0.519-23.371,11.378-27.946l0,0c10.859-4.575,23.371,0.519,27.946,11.378l5.149,12.221
					C223.012,173.753,217.917,186.265,207.058,190.84z"/>
				<path style="fill:#1E4266;" d="M203.691,149.024c2.493,0.336,5.29-0.146,6.953-2.263c0.534-0.68,0.933-1.536,0.955-2.444
					c0.04-1.631-1.096-2.981-2.258-3.956c-3.216-2.7-7.149-4.064-11.043-5.152c-0.612-0.171-1.235-0.337-1.865-0.306
					c-4.541,0.225-3.756,6.446-1.414,8.946C197.195,146.172,200.747,148.626,203.691,149.024z"/>
				<g>
					<g>
						<path style="fill:#1E4266;" d="M197.283,136.447c4.859,4.122,4.932,12.092,1.448,17.427
							c-3.484,5.335-9.615,8.382-15.775,10.009c5.336,3.593,7.432,11.281,4.659,17.085c-1.104,2.31,1.762,6.324,3.739,7.951
							c5.321,4.378,7.187,4.89,8.09,7.642c0.904,2.751,1.596,5.769,3.728,7.73c2.569,2.363,6.998,2.986,8.067,6.309
							c0.654,2.033-0.335,4.221-1.536,5.988c-1.2,1.766-2.673,3.447-3.148,5.529c-0.34,1.491-0.131,3.055-0.366,4.566
							c-0.515,3.309-3.316,6.087-6.6,6.743s-6.849-0.749-8.945-3.361c-2.252-2.807-2.854-6.713-5.29-9.361
							c-2.569-2.792-6.661-3.641-9.544-6.108c-3.61-3.09-4.739-8.157-5.205-12.885c-0.466-4.729-0.529-9.678-2.732-13.888
							c-2.57-4.91-7.959-8.707-8.044-14.248c-0.046-2.988,1.543-5.776,1.795-8.753c0.324-3.828-1.578-7.519-1.681-11.359
							c-0.103-3.812,1.609-7.512,4.089-10.41c2.479-2.898,5.684-5.081,8.973-7.011c4.538-2.663,9.474-4.955,14.727-5.238
							c5.254-0.283,10.892,1.803,13.671,6.27C199.928,136.424,198.892,136.313,197.283,136.447z"/>
						<path style="fill:#162E47;" d="M211.239,210.6c-1.069-3.323-5.497-3.946-8.067-6.309c-2.132-1.96-2.824-4.978-3.728-7.73
							c-0.904-2.752-2.769-3.264-8.09-7.642c-1.977-1.627-4.843-5.641-3.739-7.951c2.773-5.804,0.677-13.492-4.659-17.085
							c6.16-1.627,12.291-4.674,15.775-10.009c3.484-5.335,3.411-13.305-1.448-17.427c1.608-0.134,2.644-0.022,4.121,0.628
							c-2.543-4.088-7.48-6.175-12.325-6.285c2.851,1,5.376,2.772,6.964,5.326c-1.477-0.65-2.513-0.761-4.121-0.628
							c4.859,4.122,4.931,12.092,1.447,17.427c-3.484,5.335-9.615,8.382-15.775,10.009c5.336,3.593,7.432,11.281,4.659,17.085
							c-1.104,2.31,1.762,6.324,3.739,7.951c5.321,4.378,7.187,4.89,8.09,7.642c0.904,2.751,1.596,5.769,3.728,7.73
							c2.569,2.363,6.998,2.986,8.067,6.309c0.654,2.033-0.335,4.222-1.536,5.988c-1.2,1.766-2.673,3.447-3.148,5.529
							c-0.34,1.491-0.131,3.055-0.366,4.566c-0.515,3.309-3.316,6.087-6.6,6.743c-0.173,0.035-0.348,0.04-0.522,0.064
							c1.806,0.925,3.894,1.293,5.883,0.895c3.284-0.657,6.086-3.434,6.6-6.743c0.235-1.511,0.026-3.075,0.366-4.566
							c0.475-2.082,1.947-3.763,3.148-5.529C210.904,214.822,211.893,212.633,211.239,210.6z"/>
						<path style="fill:#25517D;" d="M182.803,134.3c1.05-0.363,2.169-0.669,3.257-0.448c1.088,0.221,2.124,1.118,2.179,2.262
							c0.063,1.334-1.119,2.328-2.185,3.08c-5.092,3.591-10.507,7.144-16.63,7.944c-0.543,0.071-1.136,0.109-1.598-0.197
							c-1.313-0.87,1.105-2.79,1.694-3.486c1.206-1.425,2.538-2.735,3.971-3.914C176.27,137.256,179.432,135.465,182.803,134.3z"/>
						<path style="fill:#25517D;" d="M166.786,149.121c0,0.668-0.542,1.21-1.21,1.21c-0.668,0-1.21-0.542-1.21-1.21
							c0-0.668,0.542-1.21,1.21-1.21C166.245,147.911,166.786,148.453,166.786,149.121z"/>
						<path style="fill:#25517D;" d="M166.75,179.274c1.326,1.636,2.837,3.135,3.955,4.92c3.901,6.234,2.217,14.314,3.532,21.549
							c0.39,2.146,1.087,4.301,2.496,5.967c1.408,1.665,3.641,2.756,5.783,2.348c2.142-0.408,3.928-2.601,3.475-4.734
							c-0.587-2.765-3.977-3.747-5.959-5.763c-1.905-1.939-2.446-4.855-2.356-7.572c0.09-2.717,0.713-5.399,0.74-8.117
							s-0.659-5.629-2.694-7.431c-0.91-0.806-2.031-1.337-2.989-2.086c-0.958-0.749-1.79-1.836-1.734-3.051
							c0.068-1.489,1.395-2.585,1.97-3.96c1.76-4.211-4.127-7.684-7.057-4.327C162.736,170.656,164.038,175.927,166.75,179.274z"/>
					</g>
					<path style="fill:#FFAF91;" d="M185.344,175.838c-1.589-0.078-3.07,1.114-3.612,2.609c-0.541,1.496-0.255,3.2,0.475,4.613
						c0.908,1.759,2.685,3.222,4.663,3.141c1.77-0.072,3.313-1.373,4.131-2.944c0.819-1.571,1.032-3.382,1.138-5.15
						c0.071-1.188-0.299-4.145-2.099-3.05c-0.729,0.444-1.046,1.128-1.994,1.221C187.135,176.367,186.25,175.883,185.344,175.838z"
						/>
				</g>
				<g>
					<g>
						<path style="fill:#003242;" d="M211.6,160.477c0,1.523-1.234,2.757-2.757,2.757c-1.523,0-2.757-1.234-2.757-2.757
							c0-1.522,1.234-2.757,2.757-2.757C210.366,157.72,211.6,158.954,211.6,160.477z"/>
						<path style="fill:#003242;" d="M200.878,166.423c0,1.523-1.234,2.757-2.757,2.757c-1.523,0-2.757-1.234-2.757-2.757
							c0-1.522,1.234-2.757,2.757-2.757C199.643,163.666,200.878,164.9,200.878,166.423z"/>
					</g>
					<g>
						<path style="fill:#80133C;" d="M212.572,176.039l-1.007,0.67c-2.276,1.514-5.348,0.897-6.862-1.379l-0.229-0.345
							c-0.209-0.314-0.124-0.738,0.19-0.947l8.111-5.396c0.314-0.209,0.738-0.124,0.947,0.19l0.229,0.345
							C215.465,171.453,214.848,174.525,212.572,176.039z"/>
						<path style="fill:#FFFFFF;" d="M214.398,170.02c-0.121-0.289-0.266-0.573-0.446-0.843l-0.229-0.345
							c-0.209-0.314-0.633-0.399-0.947-0.19l-8.111,5.396c-0.314,0.209-0.399,0.633-0.19,0.947l0.229,0.345
							c0.18,0.271,0.385,0.514,0.605,0.737L214.398,170.02z"/>
						<path style="fill:#F22371;" d="M208.843,177.534c0.937-0.003,1.884-0.267,2.722-0.824l1.007-0.67
							c0.83-0.552,1.434-1.315,1.799-2.168C211.858,173.607,209.393,174.539,208.843,177.534z"/>
					</g>
					<g>
						<path style="fill:#FF9066;" d="M204.434,164.195c0.327,0.789,0.903,0.959,1.57,1.366c0.338,0.186,0.657,0.469,1.026,0.634
							c0.37,0.167,0.788,0.168,1.238,0.318c0.223,0.076,0.469,0.203,0.651,0.421c0.187,0.218,0.286,0.514,0.305,0.795
							c0.041,0.572-0.194,1.091-0.568,1.467c-0.414,0.38-0.888,0.526-1.344,0.571c-0.455,0.042-0.882-0.025-1.301-0.148l-0.009-0.1
							c0.779-0.382,1.546-0.639,1.895-1.071c0.186-0.204,0.346-0.467,0.383-0.714c0.028-0.235-0.016-0.482-0.279-0.745
							c-0.563-0.52-1.479-0.543-2.332-0.669c-0.41-0.117-0.829-0.37-1.133-0.762c-0.299-0.385-0.445-0.954-0.201-1.376
							L204.434,164.195z"/>
					</g>
					<g>
						<path style="fill:#FF8F8F;" d="M215.315,162.464c0.343,0.669-0.429,1.75-1.724,2.414c-1.295,0.664-2.623,0.66-2.966-0.009
							c-0.343-0.669,0.429-1.75,1.724-2.414C213.644,161.79,214.972,161.795,215.315,162.464z"/>
						<path style="fill:#FF8F8F;" d="M202.18,170.35c0.343,0.669-0.429,1.75-1.724,2.414c-1.295,0.664-2.623,0.66-2.966-0.009
							c-0.343-0.669,0.429-1.75,1.724-2.414C200.509,169.677,201.837,169.681,202.18,170.35z"/>
					</g>
				</g>
			</g>
		</g>
	</g>
	<rect y="394.25" style="fill:#1A0726;" width="750" height="105.75"/>
	<g>
		<g>
			<g>
				<g>
					<polygon style="fill:#FF96BE;" points="142.322,450.162 127.322,450.162 164.322,297.662 179.322,297.662 					"/>
					<polygon style="fill:#FF96BE;" points="597.43,450.162 612.43,450.162 575.43,297.662 560.43,297.662 					"/>
				</g>
				<polygon style="fill:#FF6EA5;" points="162.745,304.162 177.745,304.162 175.452,313.615 160.452,313.615 				"/>
				<polygon style="fill:#FF6EA5;" points="577.019,304.162 562.019,304.162 564.313,313.615 579.313,313.615 				"/>
			</g>
			<path style="fill:#4F1678;" d="M602.608,304.162h-482.52c-2.879,0-5.602-1.305-7.405-3.549l0,0
				c-4.996-6.217-0.57-15.451,7.405-15.451h482.52c7.975,0,12.401,9.234,7.405,15.451l0,0
				C608.211,302.857,605.487,304.162,602.608,304.162z"/>
		</g>
		<g>
			<g>
				<g>
					<path style="fill:#4AA6FF;" d="M434.123,293.199l2.568-8.308c0.483-1.564,1.918-2.626,3.554-2.662
						c2.962-0.066,7.444-0.542,8.662-2.733c1.734-3.119,2.579-15.279,11.995-11.925c1.362,0.485,2.141,1.925,1.864,3.344
						c-0.932,4.788-3.486,15.516-7.973,17.64c-5.815,2.753-9.032,6.722-10.981,9.222c-1.555,1.994-5.343,1.718-8.315-0.408
						C434.187,296.432,433.647,294.739,434.123,293.199z"/>
					<path style="fill:#FFAF91;" d="M429.807,281.222l6.778,2.845c1.913,0.803,2.93,2.902,2.375,4.901l-0.602,2.167
						c-0.536,1.928-2.38,3.193-4.372,2.997l-10.554-1.036L429.807,281.222z"/>
				</g>
				<g>
					<g>
						<path style="fill:#4AA6FF;" d="M434.123,293.199l2.568-8.308c0.483-1.564,1.918-2.626,3.554-2.662
							c2.962-0.066,7.444-0.542,8.662-2.733c1.734-3.119,2.579-15.279,11.995-11.925c1.362,0.485,2.141,1.925,1.864,3.344
							c-0.932,4.788-3.486,15.516-7.973,17.64c-5.815,2.753-9.032,6.722-10.981,9.222c-1.555,1.994-5.343,1.718-8.315-0.408
							C434.187,296.432,433.647,294.739,434.123,293.199z"/>
					</g>
					<path style="fill:#FFFFFF;" d="M460.902,267.571c-0.283-0.101-0.558-0.186-0.826-0.26c0.815,0.673,1.227,1.768,1.015,2.856
						c-0.932,4.788-3.486,15.516-7.973,17.64c-5.815,2.753-9.032,6.723-10.981,9.222c-1.124,1.441-3.414,1.681-5.719,0.91
						c2.793,1.575,5.995,1.632,7.394-0.162c1.949-2.5,5.166-6.469,10.981-9.222c4.487-2.124,7.041-12.852,7.973-17.64
						C463.043,269.496,462.265,268.056,460.902,267.571z"/>
					<path style="fill:#3F8FDB;" d="M453.271,272.275c0.714-1.533,1.592-3.176,3.162-3.804c0.468-0.187,1.037-0.258,1.449,0.033
						c0.549,0.388,0.55,1.21,0.345,1.851c-0.956,2.981-4.778,4.324-5.699,7.317c-0.143,0.463-0.209,0.952-0.409,1.394
						c-0.247,0.546-1.205,1.386-1.745,0.625c-0.345-0.487,0.319-1.45,0.511-1.926C451.633,275.914,452.428,274.084,453.271,272.275z
						"/>
				</g>
			</g>
			<path style="fill:#9B44D1;" d="M425.31,295.892l-85.234-25.108c-5.04-1.485-7.923-6.774-6.438-11.814l0,0
				c1.485-5.04,6.774-7.923,11.815-6.438l84.837,24.991c1.647,0.485,2.59,2.214,2.104,3.862l-3.736,12.684
				C428.237,295.496,426.738,296.313,425.31,295.892z"/>
		</g>
	</g>
	<g>
		<path style="fill:#68DB48;" d="M176.573,254.135c0.005-0.733-0.005-1.518-0.423-2.12c-0.613-0.881-1.868-1.031-2.926-0.847
			c-1.057,0.184-2.083,0.616-3.156,0.588c-1.827-0.048-3.394-1.461-4.172-3.115c-0.778-1.654-0.92-3.525-1.051-5.347
			c-0.141-1.972-0.251-4.086,0.762-5.784s3.618-2.566,5.003-1.156c1.019,1.037,0.914,2.689,0.89,4.142
			c-0.025,1.454,0.299,3.201,1.647,3.746c1.242,0.502,2.695-0.42,3.236-1.645c0.541-1.225,0.405-2.632,0.21-3.957
			c-0.356-2.426-0.875-4.842-0.879-7.294c-0.004-2.452,0.561-5.001,2.133-6.882c1.613-1.931,4.107-2.941,6.594-3.319
			c2.35-0.358,5.079-0.065,6.562,1.793c1.692,2.12,1.021,5.201,0.267,7.807c-0.93,3.215-1.86,6.43-2.791,9.645
			c-0.283,0.979-0.57,1.996-0.419,3.004c0.151,1.008,0.869,2.008,1.879,2.141c1.643,0.217,2.678-1.799,2.706-3.456
			s-0.387-3.462,0.486-4.869c1.285-2.071,4.698-1.715,6.271,0.147c1.573,1.862,1.725,4.53,1.495,6.957
			c-0.178,1.877-0.551,3.769-1.448,5.427c-0.897,1.658-2.375,3.069-4.196,3.556c-1.442,0.386-2.967,0.176-4.46,0.21
			c-1.493,0.034-3.122,0.4-4.023,1.59c-0.791,1.044-0.829,2.456-0.834,3.766c-0.009,2.407-0.018,4.814-0.027,7.22
			c-0.008,2.137-0.116,4.522-1.65,6.009c-1.398,1.356-3.724,1.497-5.424,0.547c-2.762-1.544-2.876-3.878-2.485-6.572
			C176.914,262.199,176.545,258.043,176.573,254.135z"/>
		<g>
			<path style="fill:#74F551;" d="M193.135,237.211c-0.873,1.408-0.459,3.213-0.486,4.87c-0.026,1.572-0.967,3.444-2.467,3.448
				c0.322,0.671,0.892,1.215,1.618,1.311c1.643,0.216,2.678-1.799,2.706-3.456c0.027-1.657-0.387-3.462,0.486-4.87
				c0.898-1.447,2.834-1.706,4.456-1.097c-0.015-0.019-0.026-0.04-0.042-0.058C197.833,235.496,194.42,235.139,193.135,237.211z"/>
			<path style="fill:#74F551;" d="M173.824,244.369c0.255,0.524,0.628,0.954,1.18,1.178c1.242,0.502,2.695-0.42,3.236-1.645
				c0.541-1.225,0.405-2.632,0.21-3.957c-0.356-2.425-0.875-4.842-0.879-7.294c-0.004-2.452,0.561-5.001,2.133-6.882
				c1.613-1.931,4.107-2.941,6.595-3.319c1.524-0.232,3.201-0.182,4.6,0.382c-1.503-1.753-4.157-2.035-6.457-1.685
				c-2.487,0.379-4.981,1.389-6.594,3.319c-1.572,1.881-2.138,4.43-2.133,6.882c0.004,2.451,0.523,4.868,0.879,7.294
				c0.195,1.325,0.331,2.732-0.21,3.957C175.94,243.606,174.878,244.395,173.824,244.369z"/>
			<path style="fill:#74F551;" d="M178.209,267.371c0.561-3.87,0.192-8.025,0.221-11.934c0.005-0.733-0.005-1.518-0.423-2.12
				c-0.373-0.536-0.985-0.799-1.644-0.883c0.203,0.524,0.215,1.126,0.211,1.699c-0.028,3.908,0.34,8.064-0.221,11.934
				c-0.391,2.694-0.277,5.027,2.485,6.572c0.135,0.076,0.279,0.132,0.422,0.194C177.913,271.371,177.903,269.483,178.209,267.371z"
				/>
			<path style="fill:#74F551;" d="M167.754,249.945c-0.778-1.654-0.92-3.525-1.051-5.347c-0.141-1.972-0.25-4.086,0.762-5.784
				c0.726-1.217,2.266-1.991,3.593-1.822c-0.119-0.228-0.258-0.446-0.446-0.637c-1.385-1.41-3.99-0.542-5.003,1.156
				c-1.013,1.698-0.903,3.812-0.762,5.784c0.13,1.823,0.273,3.694,1.051,5.347c0.591,1.256,1.638,2.37,2.908,2.855
				C168.379,251.035,168.018,250.507,167.754,249.945z"/>
		</g>
		<g>
			<path style="fill:#58BA3D;" d="M169.587,238.936c-0.025,1.454,0.299,3.201,1.647,3.746c0.202,0.082,0.41,0.114,0.619,0.125
				c-0.276-0.708-0.364-1.548-0.352-2.31c0.025-1.454,0.129-3.105-0.89-4.142c-0.374-0.381-0.839-0.584-1.335-0.661
				C169.667,236.661,169.605,237.853,169.587,238.936z"/>
			<path style="fill:#58BA3D;" d="M189.359,229.185c-0.93,3.215-1.86,6.43-2.791,9.645c-0.283,0.979-0.57,1.996-0.419,3.004
				c0.151,1.008,0.869,2.008,1.879,2.141c0.066,0.009,0.125-0.008,0.189-0.006c-0.069-0.188-0.125-0.38-0.154-0.574
				c-0.151-1.008,0.135-2.025,0.419-3.004c0.93-3.215,1.86-6.43,2.791-9.645c0.754-2.605,1.424-5.687-0.267-7.807
				c-0.474-0.594-1.085-1.014-1.76-1.318C190.713,223.73,190.085,226.675,189.359,229.185z"/>
			<path style="fill:#58BA3D;" d="M199.406,237.358c-0.433-0.512-1.006-0.905-1.635-1.171c1.296,1.834,1.43,4.301,1.215,6.566
				c-0.178,1.877-0.551,3.769-1.448,5.427c-0.897,1.658-2.375,3.069-4.196,3.556c-1.442,0.386-2.967,0.176-4.46,0.21
				c-1.493,0.034-3.122,0.4-4.023,1.59c-0.791,1.044-0.829,2.456-0.834,3.766c-0.009,2.407-0.018,4.814-0.027,7.22
				c-0.008,2.137-0.116,4.522-1.65,6.009c-1.353,1.312-3.571,1.477-5.254,0.625c0.406,0.55,0.967,1.049,1.744,1.483
				c1.7,0.95,4.026,0.809,5.424-0.547c1.534-1.488,1.642-3.872,1.65-6.009c0.009-2.407,0.018-4.814,0.027-7.22
				c0.005-1.31,0.043-2.722,0.834-3.766c0.902-1.19,2.531-1.556,4.023-1.59c1.493-0.034,3.018,0.176,4.46-0.209
				c1.821-0.487,3.299-1.897,4.196-3.556s1.27-3.55,1.448-5.427C201.131,241.888,200.979,239.221,199.406,237.358z"/>
			<path style="fill:#58BA3D;" d="M174.236,250.454c-0.613-0.881-1.868-1.031-2.926-0.847c-1.057,0.184-2.083,0.616-3.156,0.588
				c-0.543-0.014-1.058-0.16-1.542-0.386c0.855,1.102,2.081,1.911,3.456,1.947c1.073,0.028,2.098-0.404,3.156-0.588
				c0.421-0.073,0.872-0.09,1.303-0.032C174.464,250.895,174.38,250.661,174.236,250.454z"/>
		</g>
		<polygon style="fill:#F2E69C;" points="165.589,265.952 197.589,265.952 191.589,292.952 171.589,292.952 		"/>
		<path style="fill:#F29241;" d="M196.589,268.952h-30c-1.105,0-2-0.895-2-2l0,0c0-1.105,0.895-2,2-2h30c1.105,0,2,0.895,2,2l0,0
			C198.589,268.057,197.694,268.952,196.589,268.952z"/>
		<g>
			<g>
				<path style="fill:#9DFF82;" d="M178.146,227.829l-2.516-3.671c-0.149-0.218,0.096-0.489,0.327-0.362l3.836,2.104
					c0.139,0.076,0.173,0.26,0.071,0.382l-1.32,1.568C178.438,227.976,178.24,227.966,178.146,227.829z"/>
				<path style="fill:#9DFF82;" d="M181.554,243.52l-2.516-3.671c-0.149-0.218,0.096-0.489,0.328-0.362l3.836,2.104
					c0.139,0.076,0.173,0.26,0.071,0.382l-1.32,1.568C181.846,243.667,181.648,243.657,181.554,243.52z"/>
				<path style="fill:#9DFF82;" d="M166.187,240.648l-2.516-3.671c-0.149-0.218,0.096-0.489,0.328-0.362l3.836,2.104
					c0.139,0.076,0.173,0.26,0.071,0.382l-1.32,1.568C166.479,240.795,166.281,240.785,166.187,240.648z"/>
				<path style="fill:#9DFF82;" d="M177.692,235.907l-3.517-2.728c-0.209-0.162-0.058-0.495,0.202-0.445l4.295,0.832
					c0.156,0.03,0.245,0.195,0.184,0.342l-0.778,1.896C178.015,235.958,177.823,236.009,177.692,235.907z"/>
				<path style="fill:#9DFF82;" d="M172.347,245.766l1.337-4.245c0.079-0.252,0.444-0.226,0.487,0.035l0.711,4.317
					c0.026,0.156-0.098,0.297-0.256,0.292l-2.048-0.072C172.412,246.086,172.297,245.924,172.347,245.766z"/>
				<path style="fill:#9DFF82;" d="M167.157,246.859l-4.418-0.537c-0.262-0.032-0.303-0.395-0.055-0.485l4.114-1.49
					c0.149-0.054,0.31,0.042,0.333,0.199l0.305,2.027C167.46,246.737,167.322,246.879,167.157,246.859z"/>
				<path style="fill:#9DFF82;" d="M195.263,237.635l1.692-4.117c0.1-0.244,0.462-0.188,0.482,0.076l0.343,4.362
					c0.012,0.158-0.123,0.288-0.28,0.269l-2.035-0.245C195.3,237.959,195.2,237.788,195.263,237.635z"/>
				<path style="fill:#9DFF82;" d="M182.736,223.72l1.863-4.042c0.111-0.24,0.469-0.168,0.479,0.096l0.16,4.372
					c0.006,0.158-0.135,0.282-0.291,0.257l-2.023-0.33C182.76,224.046,182.667,223.871,182.736,223.72z"/>
				<path style="fill:#9DFF82;" d="M188.682,224.273l3.586-2.636c0.213-0.156,0.492,0.08,0.372,0.316l-1.976,3.903
					c-0.072,0.141-0.255,0.182-0.379,0.084l-1.61-1.268C188.545,224.57,188.548,224.371,188.682,224.273z"/>
				<path style="fill:#9DFF82;" d="M193.948,247.716l1.842-4.051c0.109-0.24,0.468-0.171,0.479,0.093l0.182,4.371
					c0.007,0.158-0.133,0.283-0.29,0.258l-2.024-0.32C193.973,248.042,193.879,247.867,193.948,247.716z"/>
				<path style="fill:#9DFF82;" d="M181.684,233.59l1.863-4.042c0.111-0.24,0.469-0.168,0.479,0.096l0.16,4.372
					c0.006,0.158-0.135,0.282-0.291,0.257l-2.023-0.33C181.708,233.916,181.615,233.741,181.684,233.59z"/>
				<path style="fill:#9DFF82;" d="M180.402,252.13l1.863-4.042c0.11-0.24,0.469-0.168,0.479,0.096l0.16,4.372
					c0.006,0.158-0.135,0.282-0.291,0.257l-2.023-0.33C180.426,252.456,180.333,252.281,180.402,252.13z"/>
				<path style="fill:#9DFF82;" d="M187.737,230.814l4.351-0.938c0.258-0.056,0.416,0.274,0.211,0.44l-3.4,2.754
					c-0.123,0.1-0.307,0.062-0.38-0.079l-0.951-1.815C187.491,231.028,187.575,230.848,187.737,230.814z"/>
				<path style="fill:#9DFF82;" d="M185.888,250.657l4.351-0.938c0.258-0.056,0.416,0.274,0.211,0.44l-3.4,2.754
					c-0.123,0.1-0.307,0.062-0.38-0.079l-0.951-1.815C185.642,250.872,185.726,250.692,185.888,250.657z"/>
				<path style="fill:#9DFF82;" d="M198.912,241.44l4.351-0.939c0.258-0.056,0.416,0.274,0.211,0.44l-3.4,2.754
					c-0.123,0.1-0.307,0.062-0.38-0.079l-0.951-1.815C198.666,241.655,198.75,241.475,198.912,241.44z"/>
			</g>
		</g>
	</g>
	<g>
		<g>
			<path style="fill:#68DB48;" d="M636.154,148.589c8.521-7.373,9.451-20.258,2.078-28.778c-7.373-8.521-20.258-9.451-28.778-2.078
				c-7.722,6.682-9.186,17.881-3.908,26.266l-4.752,9.758l11.783-2.96C619.898,155.042,629.395,154.438,636.154,148.589z"/>
			<path style="fill:#FFFFFF;" d="M633.264,125.728c0.121-0.752,0.076-1.541-0.209-2.306c-0.877-2.354-3.497-3.552-5.851-2.674
				c-2.354,0.877-3.552,3.497-2.674,5.851c0.618,1.659,2.106,2.725,3.752,2.913c-1.156,4.925-4.074,8.23-6.219,10.073
				c-1.218-1.278-3.124-1.782-4.883-1.127c-2.354,0.877-3.552,3.497-2.674,5.851c0.877,2.354,3.497,3.552,5.851,2.674
				c0.398-0.148,0.748-0.361,1.075-0.598C632.419,140.435,633.428,130.262,633.264,125.728z"/>
		</g>
		<g>
			<path style="fill:#F60C65;" d="M623.772,112.639c0-3.731-3.024-6.755-6.755-6.755c-3.731,0-6.755,3.024-6.755,6.755
				c0,3.731,3.024,6.755,6.755,6.755C620.747,119.394,623.772,116.369,623.772,112.639z"/>
			<g>
				<path style="fill:#FFFFFF;" d="M613.798,111.127l-1.091,0.338c-0.109-0.073-0.219-0.174-0.328-0.305
					c-0.109-0.131-0.163-0.313-0.163-0.546c0-0.437,0.266-0.742,0.797-0.917l1.222-0.415h0.404c0.313,0,0.56,0.091,0.741,0.273
					c0.182,0.182,0.273,0.429,0.273,0.742v5.685c-0.081,0.015-0.199,0.035-0.355,0.06c-0.156,0.025-0.314,0.038-0.474,0.038
					c-0.161,0-0.304-0.011-0.432-0.033c-0.127-0.022-0.234-0.066-0.321-0.131c-0.087-0.065-0.155-0.155-0.202-0.267
					c-0.048-0.113-0.071-0.26-0.071-0.442V111.127z"/>
				<path style="fill:#FFFFFF;" d="M619.133,109.196c0.415,0,0.782,0.053,1.102,0.159c0.321,0.105,0.593,0.249,0.819,0.431
					c0.225,0.182,0.396,0.396,0.513,0.644c0.116,0.247,0.174,0.513,0.174,0.797c0,0.764-0.432,1.491-1.298,2.182l-1.43,1.146h2.619
					c0.044,0.08,0.086,0.182,0.126,0.305c0.04,0.124,0.06,0.258,0.06,0.404c0,0.262-0.058,0.449-0.174,0.562
					c-0.116,0.113-0.27,0.169-0.458,0.169h-3.787c-0.161-0.109-0.286-0.249-0.376-0.42c-0.092-0.171-0.137-0.373-0.137-0.606
					c0-0.247,0.051-0.456,0.153-0.627c0.102-0.171,0.215-0.307,0.338-0.409l1.506-1.288c0.189-0.16,0.345-0.304,0.469-0.431
					c0.123-0.127,0.224-0.242,0.3-0.344c0.076-0.102,0.132-0.196,0.163-0.284c0.033-0.087,0.05-0.171,0.05-0.251
					c0-0.203-0.09-0.364-0.267-0.48c-0.179-0.116-0.399-0.175-0.661-0.175c-0.291,0-0.55,0.046-0.78,0.137
					c-0.229,0.091-0.42,0.187-0.573,0.289c-0.124-0.088-0.226-0.196-0.306-0.327c-0.08-0.131-0.12-0.284-0.12-0.459
					c0-0.378,0.179-0.66,0.535-0.846C618.05,109.288,618.529,109.196,619.133,109.196z"/>
			</g>
		</g>
	</g>
	<g>
		<g>
			<rect x="430.223" y="54.912" style="fill:#9B44D1;" width="52.554" height="70.129"/>
			<g>
				<rect x="438.372" y="73.824" style="fill:#FF96BE;" width="26.508" height="5.434"/>
				<rect x="438.372" y="83.548" style="fill:#FF96BE;" width="26.508" height="5.434"/>
				<rect x="438.372" y="93.272" style="fill:#FF96BE;" width="26.508" height="5.434"/>
				<rect x="438.372" y="102.997" style="fill:#FF96BE;" width="26.508" height="5.434"/>
				<rect x="438.372" y="112.721" style="fill:#FF96BE;" width="26.508" height="5.434"/>
				<path style="fill:#FF96BE;" d="M471.506,79.258h-0.076c-1.501,0-2.717-1.216-2.717-2.717l0,0c0-1.501,1.216-2.717,2.717-2.717
					h0.076c1.501,0,2.717,1.216,2.717,2.717l0,0C474.223,78.041,473.007,79.258,471.506,79.258z"/>
				<path style="fill:#FF96BE;" d="M471.506,88.982h-0.076c-1.501,0-2.717-1.217-2.717-2.717l0,0c0-1.501,1.216-2.717,2.717-2.717
					h0.076c1.501,0,2.717,1.216,2.717,2.717l0,0C474.223,87.766,473.007,88.982,471.506,88.982z"/>
				<path style="fill:#FF96BE;" d="M471.506,98.707h-0.076c-1.501,0-2.717-1.217-2.717-2.717l0,0c0-1.501,1.216-2.717,2.717-2.717
					h0.076c1.501,0,2.717,1.216,2.717,2.717l0,0C474.223,97.49,473.007,98.707,471.506,98.707z"/>
				<path style="fill:#FF96BE;" d="M471.506,108.431h-0.076c-1.501,0-2.717-1.217-2.717-2.717l0,0c0-1.501,1.216-2.717,2.717-2.717
					h0.076c1.501,0,2.717,1.216,2.717,2.717l0,0C474.223,107.215,473.007,108.431,471.506,108.431z"/>
				<path style="fill:#FF96BE;" d="M471.506,118.156h-0.076c-1.501,0-2.717-1.217-2.717-2.717l0,0c0-1.501,1.216-2.717,2.717-2.717
					h0.076c1.501,0,2.717,1.216,2.717,2.717l0,0C474.223,116.939,473.007,118.156,471.506,118.156z"/>
				<path style="fill:#FF96BE;" d="M469.561,67.29h-26.595c-1.388,0-2.513-1.125-2.513-2.513l0,0c0-1.388,1.125-2.514,2.513-2.514
					h26.595c1.388,0,2.513,1.125,2.513,2.514l0,0C472.074,66.165,470.949,67.29,469.561,67.29z"/>
			</g>
		</g>
		<g>
			
				<ellipse transform="matrix(0.6785 -0.7346 0.7346 0.6785 95.4207 336.4817)" style="fill:#F60C65;" cx="432.128" cy="59.226" rx="7.651" ry="7.651"/>
			<g>
				<path style="fill:#FFFFFF;" d="M434.377,55.42c0.14,0.09,0.266,0.216,0.377,0.377c0.112,0.161,0.167,0.361,0.167,0.599
					c0,0.132-0.012,0.266-0.037,0.402c-0.025,0.136-0.066,0.27-0.124,0.402l-2.571,5.821c-0.116,0.008-0.224,0.013-0.327,0.013
					c-0.104,0-0.2,0-0.291,0c-0.371,0-0.672-0.07-0.902-0.21c-0.231-0.14-0.346-0.383-0.346-0.729c0-0.173,0.041-0.361,0.124-0.562
					c0.081-0.202,0.193-0.443,0.333-0.723l1.806-3.695h-3.029c-0.049-0.09-0.099-0.21-0.149-0.359
					c-0.049-0.148-0.073-0.305-0.073-0.47c0-0.313,0.069-0.536,0.21-0.667c0.14-0.132,0.317-0.198,0.531-0.198H434.377z"/>
			</g>
		</g>
	</g>
	<g>
		<g>
			<path style="fill:#E6BFFF;" d="M591.779,73.805c-2.493-2.93-5.936-4.864-9.351-6.636c4.758-0.003,8.527-5.267,7.543-9.922
				s-5.919-7.898-10.666-7.588c-4.747,0.31-8.977,3.718-10.955,8.045c1.104-5.137-3.498-10.681-8.751-10.542
				c-5.253,0.139-9.555,5.919-8.18,10.99c-1.196-5.292-3.405-10.575-7.497-14.137c-4.092-3.562-10.381-4.968-15.083-2.262
				c-3.439,1.979-5.513,5.786-6.313,9.673s-0.49,7.906-0.177,11.862c-1.491-3.355-6.702-3.752-9.293-1.151
				c-2.591,2.601-2.648,7.001-0.92,10.241c1.444,2.708,3.883,4.715,6.552,6.282c-3.878-1.525-8.939,0.426-10.982,4.206
				c-2.337,4.324-1.033,10.028,2.35,13.593c3.383,3.565,8.444,5.183,13.358,5.263c-3.833-0.415-7.134,3.978-6.1,7.692
				c1.034,3.714,5.531,5.844,9.237,4.781c3.592-1.031,4.486-4.15,6.767-6.347c0.909,1.774,0.54,4.491,1.488,6.627
				c1.221,2.75,4.223,4.925,7.157,4.257c2.124-0.483,3.556-2.874,3.32-4.899c2.464,4.422,5.932,8.342,10.347,10.707l5.667,20.188
				l6.245-18.274c2.586-0.487,5.023-1.58,6.992-3.347c4.662-4.184,5.629-12.266,1.298-16.792c3.791,2.981,9.991,0.511,11.893-3.92
				c1.901-4.432,0.338-9.715-2.573-13.559c3.429,1.744,7.952-0.697,9.233-4.324C595.665,80.886,594.273,76.735,591.779,73.805z"/>
			<rect x="530.441" y="66.64" style="fill:#4DA8FF;" width="43.227" height="29.054"/>
			
				<polyline style="fill:none;stroke:#2565A3;stroke-width:0.5837;stroke-linecap:round;stroke-linejoin:round;stroke-miterlimit:10;" points="
				530.441,95.695 552.055,78.982 573.668,95.695 			"/>
			
				<polyline style="fill:#6EB7FF;stroke:#2565A3;stroke-width:0.5837;stroke-linecap:round;stroke-linejoin:round;stroke-miterlimit:10;" points="
				530.441,66.64 551.993,85.419 573.668,66.64 			"/>
		</g>
		<g>
			
				<ellipse transform="matrix(0.7071 -0.7071 0.7071 0.7071 120.6552 387.2664)" style="fill:#F60C65;" cx="527.799" cy="47.99" rx="7.651" ry="7.651"/>
			<g>
				<path style="fill:#FFFFFF;" d="M524.116,46.515l-1.2,0.372c-0.12-0.08-0.24-0.192-0.36-0.336c-0.12-0.144-0.18-0.344-0.18-0.6
					c0-0.48,0.292-0.816,0.876-1.008l1.344-0.456h0.444c0.344,0,0.616,0.1,0.815,0.3c0.2,0.2,0.301,0.472,0.301,0.816v6.252
					c-0.089,0.016-0.219,0.038-0.391,0.066c-0.172,0.028-0.346,0.042-0.522,0.042c-0.177,0-0.334-0.012-0.475-0.036
					c-0.14-0.024-0.258-0.072-0.353-0.144c-0.096-0.072-0.17-0.17-0.222-0.294c-0.053-0.124-0.078-0.286-0.078-0.486V46.515z"/>
				<path style="fill:#FFFFFF;" d="M529.971,52.059c-0.368,0-0.702-0.028-1.002-0.084c-0.3-0.056-0.558-0.14-0.774-0.252
					c-0.216-0.112-0.384-0.25-0.504-0.414c-0.12-0.164-0.18-0.354-0.18-0.57c0-0.224,0.063-0.412,0.192-0.564
					c0.128-0.152,0.271-0.272,0.432-0.36c0.224,0.168,0.464,0.314,0.72,0.438c0.256,0.124,0.58,0.185,0.973,0.185
					c0.376,0,0.644-0.084,0.804-0.252c0.16-0.168,0.24-0.372,0.24-0.612c0-0.232-0.07-0.424-0.21-0.576
					c-0.141-0.152-0.383-0.228-0.727-0.228c-0.216,0-0.396,0.024-0.54,0.072c-0.143,0.048-0.308,0.116-0.492,0.204
					c-0.392-0.016-0.701-0.122-0.93-0.318c-0.227-0.196-0.342-0.498-0.342-0.906c0-0.024,0-0.054,0-0.09
					c0-0.036,0.004-0.11,0.012-0.222l0.144-1.824c0.023-0.344,0.132-0.616,0.323-0.816c0.192-0.2,0.46-0.3,0.805-0.3h3.456
					c0.048,0.088,0.096,0.204,0.144,0.348c0.048,0.144,0.072,0.296,0.072,0.456c0,0.304-0.068,0.521-0.204,0.648
					c-0.137,0.128-0.309,0.192-0.516,0.192h-2.305l-0.084,1.128c0.152-0.04,0.307-0.076,0.462-0.108
					c0.156-0.032,0.354-0.048,0.595-0.048c0.415,0,0.775,0.062,1.079,0.186c0.305,0.124,0.555,0.294,0.75,0.51
					c0.196,0.216,0.341,0.468,0.433,0.756c0.092,0.288,0.138,0.596,0.138,0.924c0,0.328-0.056,0.644-0.168,0.948
					c-0.112,0.304-0.288,0.57-0.528,0.798c-0.239,0.228-0.546,0.41-0.918,0.546C530.949,51.991,530.5,52.059,529.971,52.059z"/>
			</g>
		</g>
	</g>
	<g>
		<g>
			<polygon style="fill:#4AA6FF;" points="358.527,129.648 349.676,141.302 348.335,126.006 333.62,133.127 339.967,115.443 
				325.07,110.355 338.935,103.626 330.296,89.685 345.982,91.189 345.706,74.892 358.787,84.82 367.341,71.619 369.258,87.409 
				383.82,81.368 379.874,96.246 395.1,97.572 382.663,108.141 396.759,117.677 379.334,119.342 397.93,148.474 371.769,126.713 
				369.875,142.033 			"/>
			<g>
				<path style="fill:#FFFFFF;" d="M356.948,113.455c-0.56-0.302-1.083-0.843-1.572-1.624c-0.489-0.78-0.729-1.699-0.719-2.757
					c0.009-1.024,0.288-1.79,0.838-2.297c0.549-0.507,1.353-0.888,2.413-1.144l3.873-0.908c1.656-0.415,2.488-1.201,2.498-2.357
					c0.005-0.627-0.296-1.175-0.902-1.643c-0.608-0.468-1.654-0.708-3.141-0.721c-1.355-0.012-2.628,0.151-3.82,0.488
					c-1.193,0.336-2.155,0.733-2.885,1.189c-0.558-0.434-1.032-0.959-1.424-1.574c-0.391-0.614-0.583-1.351-0.575-2.21
					c0.007-0.859,0.262-1.609,0.763-2.248c0.501-0.64,1.191-1.162,2.07-1.568c0.879-0.405,1.922-0.702,3.13-0.89
					c1.207-0.188,2.537-0.275,3.992-0.263c3.898,0.034,6.839,0.926,8.822,2.678c1.983,1.752,2.964,4.032,2.939,6.839
					c-0.046,5.286-3.809,8.639-11.287,10.062L356.948,113.455z M355.256,119.933c0.012-1.354,0.443-2.465,1.293-3.334
					c0.85-0.868,2.018-1.296,3.505-1.283c1.487,0.013,2.647,0.461,3.482,1.343c0.835,0.883,1.246,2.002,1.235,3.356
					c-0.012,1.355-0.443,2.466-1.292,3.334c-0.85,0.868-2.018,1.296-3.505,1.283c-1.487-0.013-2.648-0.461-3.482-1.343
					C355.656,122.406,355.245,121.288,355.256,119.933z"/>
			</g>
		</g>
		<g>
			<circle style="fill:#F60C65;" cx="334.519" cy="92.115" r="7.83"/>
			<g>
				<path style="fill:#FFFFFF;" d="M330.42,90.44l-1.265,0.392c-0.127-0.084-0.253-0.202-0.38-0.354
					c-0.127-0.152-0.189-0.362-0.189-0.632c0-0.506,0.308-0.86,0.923-1.062l1.416-0.481h0.468c0.362,0,0.65,0.105,0.859,0.316
					c0.211,0.211,0.317,0.498,0.317,0.86v6.59c-0.094,0.017-0.23,0.04-0.412,0.07c-0.181,0.029-0.364,0.044-0.55,0.044
					c-0.186,0-0.352-0.013-0.5-0.038c-0.147-0.025-0.272-0.076-0.373-0.152c-0.101-0.076-0.179-0.179-0.234-0.31
					c-0.056-0.131-0.082-0.302-0.082-0.512V90.44z"/>
				<path style="fill:#FFFFFF;" d="M340.651,92.237c0,0.649-0.084,1.227-0.252,1.733c-0.169,0.506-0.404,0.93-0.702,1.271
					c-0.3,0.341-0.658,0.601-1.076,0.778c-0.417,0.177-0.871,0.266-1.36,0.266c-0.497,0-0.954-0.089-1.372-0.266
					c-0.417-0.177-0.776-0.436-1.075-0.778c-0.3-0.342-0.532-0.765-0.696-1.271c-0.165-0.506-0.247-1.083-0.247-1.733
					c0-0.65,0.082-1.225,0.247-1.727c0.164-0.501,0.396-0.923,0.696-1.265c0.298-0.342,0.658-0.601,1.075-0.778
					c0.418-0.177,0.875-0.266,1.372-0.266c0.489,0,0.943,0.089,1.36,0.266c0.418,0.177,0.776,0.436,1.076,0.778
					c0.298,0.341,0.533,0.763,0.702,1.265C340.567,91.012,340.651,91.587,340.651,92.237z M338.489,92.237
					c0-0.742-0.107-1.316-0.322-1.72c-0.215-0.405-0.521-0.607-0.917-0.607s-0.698,0.202-0.905,0.607
					c-0.206,0.404-0.31,0.978-0.31,1.72c0,0.742,0.104,1.317,0.31,1.727c0.207,0.409,0.508,0.613,0.905,0.613
					s0.702-0.204,0.917-0.613C338.382,93.554,338.489,92.979,338.489,92.237z"/>
			</g>
		</g>
	</g>
	<g>
		<path style="fill:#7320AE;" d="M549.149,336.405h-92.802c-4.396,0-7.959-3.564-7.959-7.96v-23.358h108.721v23.358
			C557.108,332.842,553.544,336.405,549.149,336.405z"/>
		<rect x="448.387" y="305.088" style="fill:#621C96;" width="108.721" height="5.047"/>
		<g>
			
				<ellipse transform="matrix(0.987 -0.1606 0.1606 0.987 -44.9937 84.9226)" style="fill:#FFFFFF;" cx="502.748" cy="320.747" rx="8.99" ry="8.99"/>
			<path style="fill:#D6D6D6;" d="M507.988,313.452c1.063,1.476,1.695,3.282,1.695,5.24c0,4.965-4.025,8.99-8.99,8.99
				c-1.958,0-3.764-0.633-5.241-1.695c1.632,2.268,4.287,3.75,7.295,3.75c4.965,0,8.99-4.025,8.99-8.99
				C511.738,317.74,510.256,315.084,507.988,313.452z"/>
		</g>
	</g>
	<g>
		<ellipse style="fill:#13051C;" cx="504.677" cy="459.035" rx="88.404" ry="23.965"/>
		<g>
			<polygon style="fill:none;stroke:#FFFFFF;stroke-width:1.2754;stroke-miterlimit:10;" points="554.512,447.886 506.839,447.886 
				494.086,369.708 567.266,369.708 			"/>
			
				<line style="fill:none;stroke:#FFFFFF;stroke-width:1.2754;stroke-miterlimit:10;" x1="504.749" y1="435.069" x2="556.392" y2="435.069"/>
			
				<line style="fill:none;stroke:#FFFFFF;stroke-width:1.2754;stroke-miterlimit:10;" x1="502.656" y1="422.24" x2="558.695" y2="422.24"/>
			
				<line style="fill:none;stroke:#FFFFFF;stroke-width:1.2754;stroke-miterlimit:10;" x1="500.563" y1="409.41" x2="560.789" y2="409.41"/>
			
				<line style="fill:none;stroke:#FFFFFF;stroke-width:1.2754;stroke-miterlimit:10;" x1="498.47" y1="396.581" x2="562.881" y2="396.581"/>
			
				<line style="fill:none;stroke:#FFFFFF;stroke-width:1.2754;stroke-miterlimit:10;" x1="496.377" y1="383.751" x2="564.974" y2="383.751"/>
			
				<line style="fill:none;stroke:#FFFFFF;stroke-width:1.2754;stroke-miterlimit:10;" x1="514.974" y1="447.886" x2="507.115" y2="369.708"/>
			
				<line style="fill:none;stroke:#FFFFFF;stroke-width:1.2754;stroke-miterlimit:10;" x1="524.075" y1="447.886" x2="520.559" y2="369.708"/>
			
				<line style="fill:none;stroke:#FFFFFF;stroke-width:1.2754;stroke-miterlimit:10;" x1="530.676" y1="447.886" x2="530.676" y2="369.708"/>
			
				<line style="fill:none;stroke:#FFFFFF;stroke-width:1.2754;stroke-miterlimit:10;" x1="537.725" y1="447.886" x2="543.309" y2="369.708"/>
			
				<line style="fill:none;stroke:#FFFFFF;stroke-width:1.2754;stroke-miterlimit:10;" x1="546.411" y1="447.886" x2="556.392" y2="369.708"/>
			<path style="fill:#FFFFFF;" d="M564.343,374.464h-67.3c-2.269,0-4.191-1.292-4.506-3.028l0,0
				c-0.384-2.115,1.742-4.004,4.506-4.004h67.3c2.764,0,4.89,1.889,4.506,4.004l0,0
				C568.534,373.173,566.612,374.464,564.343,374.464z"/>
			<polygon style="fill:#FFFFFF;" points="554.512,447.886 555.523,441.683 505.971,441.683 506.839,447.886 			"/>
		</g>
		<g>
			<path style="fill:#D4D4D4;" d="M439.641,429.587c-0.354,1.932,0.231,3.915,1.022,5.713c0.468,1.064,0.967,2.434,0.155,3.266
				c-0.359,0.368-0.886,0.506-1.382,0.64c-3.343,0.901-7.055,2.951-7.308,6.404c-0.185,2.517,1.79,4.886,4.214,5.589
				c2.424,0.703,5.109-0.055,7.143-1.55c1.127-0.828,2.22-1.925,3.618-1.977c2.824-0.105,3.877,3.744,6.215,5.332
				c1.286,0.874,3.088,0.982,4.408,0.161c1.32-0.821,2.02-2.577,1.514-4.047c-0.387-1.125-1.393-2.057-1.393-3.247
				c0-1.656,1.835-2.586,3.327-3.305c1.186-0.571,2.353-1.27,3.152-2.316c0.799-1.046,1.165-2.505,0.635-3.709
				c-0.792-1.799-3.195-2.311-5.1-1.827c-0.551,0.14-1.145,0.339-1.667,0.113c-0.705-0.304-0.9-1.247-0.71-1.991
				c0.189-0.744,0.649-1.39,0.903-2.115c0.414-1.18,0.206-2.605-0.672-3.495c-2.509-2.545-3.523,0.751-4.619,2.157
				c-1.529,1.962-0.553,2.383-3.197,0.957c-2.064-1.114-2.736-4.099-5.316-4.572C442.111,425.314,440.075,427.219,439.641,429.587z"
				/>
			<g>
				<path style="fill:#A6A6A6;" d="M444.901,437.433c-0.812-0.754-1.371-1.694-1.699-2.713c-0.143-0.52-0.175-1.074-0.313-1.584
					l-0.232-0.78c-0.061-0.267-0.116-0.624,0.081-0.946c0.088-0.155,0.217-0.299,0.41-0.396c0.187-0.102,0.471-0.11,0.679-0.015
					c0.425,0.211,0.542,0.459,0.725,0.615c0.355,0.356,0.727,0.687,1.097,1.021c0.728,0.686,1.503,1.314,2.337,2.019l-0.039,0.092
					c-1.102-0.118-2.131-0.617-2.995-1.304c-0.424-0.356-0.797-0.77-1.121-1.217c-0.168-0.228-0.32-0.465-0.365-0.509
					c-0.008-0.053-0.132-0.108-0.289,0.021c-0.13,0.104-0.214,0.32-0.186,0.563c0.019,0.239,0.111,0.49,0.204,0.734
					c0.195,0.486,0.528,0.919,0.778,1.375c0.46,0.931,0.808,1.892,1.015,2.977L444.901,437.433z"/>
			</g>
			<g>
				<path style="fill:#A6A6A6;" d="M441.466,442.22c-0.675,0.581-1.252,1.184-1.756,1.833c-0.256,0.322-0.474,0.667-0.69,1.013
					c-0.214,0.346-0.444,0.692-0.63,1.068l-0.301-0.41c0.721,0.095,1.472,0.073,2.173-0.147c0.706-0.21,1.337-0.589,1.935-0.998
					c0.611-0.397,1.31-0.849,2.233-0.935c0.446-0.042,0.929,0.041,1.37,0.294c0.211,0.124,0.418,0.333,0.542,0.504
					c0.121,0.169,0.204,0.267,0.243,0.304l-0.696,0.2c0.601-1.042,1.493-1.913,2.556-2.389l0.06,0.08
					c-0.743,0.868-1.335,1.771-1.737,2.746l-0.199,0.482l-0.498-0.282c-0.281-0.16-0.42-0.373-0.532-0.49
					c-0.106-0.122-0.177-0.169-0.287-0.234c-0.204-0.126-0.485-0.174-0.779-0.185c-0.586-0.023-1.226,0.304-1.92,0.588
					c-0.715,0.292-1.477,0.465-2.212,0.624c-0.74,0.152-1.473,0.332-2.24,0.46l-0.399,0.067l0.098-0.477
					c0.093-0.451,0.227-0.904,0.45-1.314c0.22-0.41,0.512-0.779,0.828-1.116c0.64-0.669,1.458-1.17,2.342-1.376L441.466,442.22z"/>
			</g>
			<g>
				<path style="fill:#A6A6A6;" d="M452.431,444.891c0.729,0.838,1.503,1.595,2.336,2.266c0.208,0.168,0.418,0.332,0.637,0.485
					c0.213,0.148,0.465,0.341,0.536,0.334c0.072-0.029,0.001,0.051,0.074-0.104c0.043-0.151,0.023-0.388-0.015-0.598
					c-0.293-0.948-0.668-2.053-1.109-3.037c-0.462-0.995-1.048-1.932-1.733-2.788l-0.117-0.147l0.155-0.153
					c0.505-0.498,1.233-0.655,1.863-0.695c0.642-0.043,1.268,0.035,1.785-0.04c0.528-0.064,1.067-0.26,1.295-0.571
					c0.227-0.297,0.211-0.678-0.056-1.028c-0.253-0.351-0.677-0.55-1.204-0.611c-0.523-0.079-1.091-0.006-1.717,0.059
					c-0.618,0.065-1.336,0.065-1.968-0.294c-0.587-0.33-1.033-1.087-0.753-1.719l0.096,0.028c-0.072,0.6,0.414,1.041,0.891,1.225
					c0.481,0.185,1.049,0.074,1.619-0.032c0.574-0.118,1.217-0.282,1.914-0.255c0.674,0.025,1.495,0.301,1.974,0.952
					c0.237,0.314,0.411,0.707,0.423,1.147c0.013,0.442-0.161,0.872-0.444,1.186c-0.586,0.628-1.329,0.76-1.989,0.819
					c-0.701,0.032-1.289-0.116-1.865-0.143c-0.571-0.05-1.135-0.011-1.564,0.313l0.037-0.299l1.687,2.872
					c0.579,0.971,1.155,1.864,1.614,2.987c0.095,0.322,0.135,0.65,0.05,1.039c-0.046,0.189-0.144,0.427-0.379,0.596
					c-0.237,0.165-0.513,0.2-0.753,0.143c-0.472-0.146-0.629-0.362-0.859-0.53c-0.219-0.184-0.428-0.379-0.632-0.577
					c-0.808-0.803-1.469-1.748-1.913-2.778L452.431,444.891z"/>
			</g>
		</g>
		<g>
			<path style="fill:#D4D4D4;" d="M497.146,433.145c1.438-0.581,3.386-0.109,3.975,1.326c0.53,1.29-0.066,3.061,0.999,3.961
				c0.672,0.568,1.706,0.444,2.488,0.04c0.782-0.404,1.422-1.038,2.183-1.48c2.932-1.706,7.291,0.48,7.678,3.85
				c0.054,0.474,0.038,0.974-0.179,1.399c-0.451,0.883-1.661,1.26-1.922,2.217c-0.225,0.821,0.391,1.65,1.107,2.111
				c0.716,0.46,1.561,0.709,2.229,1.238c1.808,1.433,1.453,4.607-0.406,5.973c-1.859,1.366-4.604,1.044-6.451-0.339
				c-1.761-1.319-3.458-3.624-5.555-2.957c-1.311,0.418-1.956,1.839-2.694,3c-1.358,2.135-3.75,3.819-6.266,3.552
				c-2.516-0.267-4.659-3.106-3.614-5.41c0.519-1.144,1.7-2.335,1.07-3.422c-1.878-0.019-3.868-0.07-5.448-1.084
				c-5.651-3.625,1.608-5.585,3.964-6.693C493.595,438.879,493.78,434.506,497.146,433.145z"/>
			<g>
				<path style="fill:#A6A6A6;" d="M491.787,444.284c1.196-0.683,2.05-1.631,2.779-2.712c0.699-1.085,1.561-2.166,2.106-3.415
					l0.161-0.37l0.127,0.377c0.34,1.011,0.833,1.966,1.301,2.93c0.194,0.446,0.509,0.869,0.771,0.988
					c0.163,0.048,0.247,0,0.367-0.522c0.106-0.517,0.297-1.117,0.585-1.61c0.143-0.253,0.294-0.501,0.477-0.726
					c0.092-0.111,0.17-0.22,0.32-0.362c0.13-0.124,0.403-0.314,0.741-0.257c0.337,0.063,0.503,0.297,0.59,0.444
					c0.095,0.166,0.135,0.298,0.183,0.418l0.265,0.76c0.181,0.504,0.339,1.02,0.48,1.544l-0.09,0.043
					c-0.321-0.437-0.624-0.883-0.905-1.34l-0.427-0.682c-0.112-0.257-0.324-0.411-0.215-0.313c0.156-0.029-0.018,0.059-0.143,0.309
					c-0.126,0.21-0.251,0.418-0.353,0.639c-0.206,0.453-0.361,0.871-0.486,1.395c-0.088,0.271-0.177,0.625-0.52,0.943
					c-0.327,0.32-0.923,0.37-1.287,0.147c-0.678-0.421-0.881-1.026-1.036-1.566c-0.268-1.037-0.512-2.084-0.908-3.074l0.288,0.007
					c-0.521,1.249-0.796,2.66-1.66,3.808c-0.419,0.57-0.913,1.106-1.506,1.519c-0.585,0.42-1.275,0.701-1.974,0.775L491.787,444.284
					z"/>
			</g>
			<g>
				<path style="fill:#A6A6A6;" d="M495.178,447.961c0.176,1.051,0.111,2.062-0.128,3.044c-0.154,0.478-0.355,0.908-0.251,1.381
					c0.051,0.22,0.183,0.416,0.366,0.463c0.191,0.058,0.367-0.033,0.505-0.169c0.26-0.296,0.506-0.786,0.823-1.175
					c0.296-0.41,0.601-0.813,0.935-1.19c0.689-0.737,1.432-1.429,2.331-1.987l0.076,0.065c-0.41,0.976-0.976,1.818-1.596,2.615
					c-0.32,0.39-0.669,0.754-1.028,1.111c-0.364,0.349-0.676,0.729-1.244,1.021c-0.276,0.151-0.65,0.162-0.932,0.024
					c-0.296-0.146-0.451-0.425-0.546-0.679c-0.193-0.501-0.295-1.108-0.261-1.613c0.087-1.007,0.348-1.986,0.851-2.926
					L495.178,447.961z"/>
			</g>
			<g>
				<path style="fill:#A6A6A6;" d="M502.221,447.824c0.842,0.223,1.656,0.476,2.462,0.741c0.804,0.271,1.608,0.525,2.4,0.824
					l-0.562,0.468c-0.079-0.993-0.142-2.03-0.485-2.997l-0.397-1.12l0.673,0.967c0.703,1.01,1.814,1.663,2.931,2.045
					c0.561,0.195,1.127,0.359,1.706,0.445c0.578,0.09,1.161,0.09,1.734,0.059l-0.406,0.232c-0.044,0.044-0.032,0.163-0.032,0.138
					c-0.001-0.01-0.035-0.077-0.086-0.134c-0.085-0.106-0.316-0.278-0.496-0.434c-0.371-0.324-0.746-0.644-1.107-0.982
					c-0.724-0.672-1.435-1.362-2.1-2.109l0.062-0.079c0.884,0.468,1.724,0.993,2.549,1.536c0.414,0.27,0.814,0.557,1.218,0.841
					c0.199,0.157,0.384,0.256,0.642,0.506c0.115,0.122,0.235,0.255,0.321,0.476c0.095,0.202,0.099,0.594-0.088,0.844l-0.159,0.213
					l-0.247,0.019c-0.669,0.051-1.34-0.033-1.986-0.177c-0.645-0.148-1.274-0.368-1.846-0.69c-1.148-0.652-2.062-1.576-2.864-2.556
					l0.276-0.153c0.394,0.963,0.844,1.94,1.043,2.995l0.125,0.66l-0.687-0.192c-0.834-0.233-1.637-0.567-2.417-0.941
					c-0.778-0.379-1.526-0.825-2.22-1.355L502.221,447.824z"/>
			</g>
			<g>
				<path style="fill:#A6A6A6;" d="M508.845,442.907c0.587-0.538,1.105-0.915,1.698-1.252c0.301-0.154,0.695-0.249,0.895-0.494
					c0.221-0.249,0.108-0.611-0.153-0.694c-0.256-0.097-0.56-0.101-0.838-0.091c-0.26,0.024-0.554,0.133-0.863,0.224
					c-0.615,0.17-1.209,0.406-1.922,0.722l-0.075-0.066c0.245-0.768,0.895-1.358,1.646-1.664c0.703-0.275,1.84-0.31,2.422,0.471
					c0.321,0.388,0.264,0.93,0.055,1.272c-0.206,0.358-0.407,0.702-0.674,0.989c-0.571,0.521-1.365,0.802-2.164,0.679
					L508.845,442.907z"/>
			</g>
		</g>
		<g>
			<path style="fill:#D4D4D4;" d="M470.466,457.251c1.122-0.453,2.641-0.085,3.101,1.034c0.413,1.006-0.052,2.387,0.78,3.089
				c0.524,0.443,1.33,0.346,1.94,0.031c0.61-0.315,1.109-0.81,1.702-1.155c2.287-1.33,5.687,0.374,5.989,3.003
				c0.043,0.37,0.03,0.76-0.14,1.091c-0.352,0.689-1.296,0.983-1.499,1.729c-0.175,0.64,0.305,1.287,0.864,1.646
				s1.218,0.553,1.738,0.966c1.41,1.118,1.133,3.593-0.317,4.659c-1.45,1.066-3.591,0.814-5.032-0.265
				c-1.374-1.029-2.697-2.827-4.332-2.306c-1.023,0.326-1.525,1.435-2.101,2.34c-1.059,1.665-2.925,2.979-4.887,2.771
				c-1.962-0.208-3.634-2.422-2.819-4.22c0.405-0.892,1.326-1.821,0.835-2.669c-1.465-0.015-3.017-0.055-4.25-0.846
				c-4.408-2.827,1.254-4.356,3.092-5.22C467.695,461.724,467.84,458.313,470.466,457.251z"/>
			<g>
				<path style="fill:#A6A6A6;" d="M466.285,465.94c0.933-0.533,1.599-1.272,2.168-2.116c0.545-0.846,1.217-1.69,1.642-2.664
					l0.126-0.289l0.099,0.294c0.265,0.789,0.65,1.533,1.015,2.285c0.143,0.352,0.399,0.678,0.601,0.77
					c0.127,0.037,0.193,0,0.286-0.407c0.082-0.404,0.232-0.871,0.456-1.256c0.112-0.197,0.228-0.392,0.374-0.566
					c0.072-0.086,0.134-0.17,0.252-0.28c0.102-0.096,0.314-0.24,0.573-0.196c0.259,0.047,0.389,0.227,0.458,0.341
					c0.075,0.128,0.107,0.231,0.146,0.324l0.207,0.593c0.141,0.393,0.264,0.796,0.374,1.204l-0.07,0.034
					c-0.25-0.341-0.487-0.689-0.706-1.045l-0.333-0.532c-0.086-0.202-0.246-0.323-0.167-0.252c0.114-0.021-0.018,0.052-0.114,0.248
					c-0.095,0.165-0.195,0.327-0.274,0.499c-0.161,0.353-0.282,0.68-0.379,1.088c-0.068,0.211-0.138,0.487-0.405,0.735
					c-0.255,0.25-0.72,0.289-1.003,0.115c-0.531-0.328-0.679-0.805-0.808-1.222c-0.209-0.809-0.399-1.625-0.708-2.398l0.225,0.006
					c-0.406,0.974-0.621,2.075-1.295,2.97c-0.633,0.885-1.6,1.68-2.714,1.789L466.285,465.94z"/>
			</g>
			<g>
				<path style="fill:#A6A6A6;" d="M468.931,468.808c0.138,0.82,0.087,1.608-0.1,2.374c-0.128,0.372-0.272,0.709-0.196,1.077
					c0.04,0.171,0.143,0.324,0.286,0.361c0.149,0.045,0.286-0.026,0.394-0.132c0.203-0.23,0.393-0.614,0.643-0.915
					c0.235-0.317,0.465-0.637,0.728-0.929c0.536-0.577,1.121-1.112,1.818-1.55l0.059,0.051c-0.323,0.758-0.759,1.42-1.245,2.039
					c-0.247,0.306-0.527,0.584-0.803,0.866c-0.281,0.275-0.526,0.57-0.969,0.798c-0.215,0.118-0.507,0.126-0.727,0.019
					c-0.23-0.114-0.352-0.331-0.426-0.53c-0.155-0.391-0.223-0.863-0.204-1.258c0.068-0.786,0.272-1.549,0.664-2.282
					L468.931,468.808z"/>
			</g>
			<g>
				<path style="fill:#A6A6A6;" d="M474.424,468.7c0.656,0.174,1.291,0.372,1.92,0.578c0.627,0.211,1.254,0.41,1.872,0.642
					l-0.438,0.365c-0.061-0.774-0.111-1.584-0.378-2.338l-0.31-0.876l0.526,0.757c0.548,0.788,1.416,1.296,2.286,1.597
					c0.87,0.32,1.787,0.465,2.684,0.392l-0.316,0.181c-0.035,0.034-0.025,0.127-0.025,0.107c-0.001-0.008-0.027-0.06-0.067-0.105
					c-0.066-0.082-0.246-0.217-0.387-0.339l-0.861-0.769c-0.57-0.517-1.121-1.06-1.641-1.641l0.048-0.061
					c0.689,0.366,1.347,0.771,1.986,1.202l0.953,0.652c0.155,0.122,0.3,0.199,0.5,0.395c0.089,0.095,0.183,0.199,0.25,0.371
					c0.075,0.157,0.077,0.463-0.068,0.658l-0.128,0.171l-0.189,0.01c-1.044,0.055-2.091-0.19-2.988-0.678
					c-0.897-0.506-1.609-1.229-2.235-1.992l0.215-0.119c0.307,0.751,0.658,1.513,0.813,2.336l0.097,0.515l-0.535-0.15
					c-0.651-0.182-1.277-0.443-1.885-0.734c-0.607-0.296-1.19-0.643-1.732-1.057L474.424,468.7z"/>
			</g>
			<g>
				<path style="fill:#A6A6A6;" d="M479.59,464.866c0.458-0.419,0.862-0.714,1.324-0.977c0.24-0.114,0.539-0.198,0.698-0.385
					c0.173-0.194,0.084-0.476-0.119-0.541c-0.2-0.076-0.437-0.077-0.654-0.073c-0.204,0.013-0.432,0.108-0.673,0.176
					c-0.477,0.135-0.946,0.313-1.499,0.563l-0.059-0.052c0.194-0.596,0.696-1.062,1.284-1.298c0.549-0.211,1.435-0.242,1.889,0.368
					c0.251,0.303,0.206,0.725,0.043,0.992c-0.157,0.283-0.322,0.542-0.526,0.771c-0.445,0.407-1.064,0.625-1.688,0.529
					L479.59,464.866z"/>
			</g>
		</g>
	</g>
	<rect x="240.713" y="341.33" style="fill:#ABABAB;" width="11.595" height="2.737"/>
	<g>
		<g>
			<ellipse style="fill:#13051C;" cx="246.27" cy="440.411" rx="78.27" ry="21.184"/>
			<g>
				<g>
					<g>
						<g>
							<rect x="240.713" y="341.33" style="fill:#D4D4D4;" width="11.595" height="61.886"/>
							<g>
								<path style="fill:#D4D4D4;" d="M301.116,441.578l-18.724-28.794c-2.056-3.161-5.571-5.069-9.342-5.069h-55.135
									c-3.979,0-7.656,2.122-9.648,5.567l-16.24,28.095l-7.792-4.504l18.839-32.59c1.991-3.445,5.668-5.567,9.648-5.567h65.211
									c3.771,0,7.286,1.907,9.342,5.069l21.386,32.888L301.116,441.578z"/>
							</g>
							<path style="fill:#ABABAB;" d="M203.074,407.426c1.991-3.445,5.668-5.567,9.648-5.567h65.211
								c3.771,0,7.286,1.907,9.342,5.068l19.949,30.678l1.437-0.934l-21.386-32.888c-2.056-3.161-5.571-5.069-9.342-5.069h-65.211
								c-3.979,0-7.656,2.122-9.648,5.567l-18.839,32.59l1.362,0.787L203.074,407.426z"/>
							<g>
								<rect x="242.01" y="403.216" style="fill:#D4D4D4;" width="9" height="28.974"/>
							</g>
						</g>
					</g>
					<g>
						<path style="fill:#EDEDED;" d="M244.508,388.338L244.508,388.338c-0.825,0-1.494-0.669-1.494-1.494v-38.362
							c0-0.825,0.669-1.494,1.494-1.494l0,0c0.825,0,1.495,0.669,1.495,1.494v38.362
							C246.003,387.669,245.333,388.338,244.508,388.338z"/>
						<path style="fill:#EDEDED;" d="M245.846,391.581c0-0.739-0.599-1.338-1.338-1.338c-0.739,0-1.338,0.599-1.338,1.338
							c0,0.739,0.599,1.338,1.338,1.338C245.247,392.919,245.846,392.32,245.846,391.581z"/>
					</g>
				</g>
				<g>
					<g>
						<circle style="fill:#327BC2;" cx="188.132" cy="439.125" r="8.899"/>
						<path style="fill:#28659E;" d="M193.575,432.096c0.917,1.399,1.455,3.07,1.455,4.868c0,4.914-3.984,8.898-8.898,8.898
							c-2.053,0-3.938-0.702-5.443-1.87c1.589,2.425,4.327,4.03,7.444,4.03c4.914,0,8.898-3.984,8.898-8.898
							C197.031,436.263,195.674,433.724,193.575,432.096z"/>
						<path style="fill:#3E98F0;" d="M190.175,433.351c1.036,1.293,0.049,3.805-2.205,5.612c-2.254,1.806-4.921,2.223-5.957,0.93
							c-1.036-1.293-0.049-3.805,2.205-5.612C186.472,432.474,189.139,432.058,190.175,433.351z"/>
					</g>
					<g>
						<circle style="fill:#327BC2;" cx="304.696" cy="439.125" r="8.899"/>
						<path style="fill:#28659E;" d="M310.139,432.096c0.917,1.399,1.455,3.07,1.455,4.868c0,4.914-3.984,8.898-8.898,8.898
							c-2.053,0-3.938-0.702-5.443-1.87c1.589,2.425,4.327,4.03,7.444,4.03c4.915,0,8.898-3.984,8.898-8.898
							C313.595,436.263,312.238,433.724,310.139,432.096z"/>
						<path style="fill:#3E98F0;" d="M306.74,433.351c1.036,1.293,0.049,3.805-2.205,5.612c-2.254,1.806-4.921,2.223-5.957,0.93
							c-1.036-1.293-0.049-3.805,2.204-5.612C303.036,432.474,305.703,432.058,306.74,433.351z"/>
					</g>
					<g>
						<circle style="fill:#327BC2;" cx="245.846" cy="428.125" r="8.899"/>
						<path style="fill:#28659E;" d="M251.289,421.096c0.917,1.399,1.455,3.07,1.455,4.868c0,4.914-3.984,8.898-8.898,8.898
							c-2.053,0-3.938-0.702-5.443-1.87c1.589,2.425,4.327,4.03,7.444,4.03c4.914,0,8.898-3.984,8.898-8.898
							C254.744,425.263,253.388,422.724,251.289,421.096z"/>
						<path style="fill:#3E98F0;" d="M247.889,422.351c1.036,1.293,0.049,3.805-2.204,5.612c-2.254,1.806-4.921,2.223-5.957,0.93
							c-1.036-1.293-0.049-3.805,2.205-5.612C244.186,421.474,246.853,421.058,247.889,422.351z"/>
					</g>
				</g>
			</g>
		</g>
		<g>
			<g>
				<path style="fill:#FF96BE;" d="M298.402,341.573H194.294c-5.642,0-10.216-4.574-10.216-10.216l0,0
					c0-5.642,4.574-10.216,10.216-10.216h104.108c5.642,0,10.216,4.574,10.216,10.216l0,0
					C308.618,336.999,304.044,341.573,298.402,341.573z"/>
				<path style="fill:#FF70A7;" d="M300.359,321.333c1.531,1.786,2.461,4.103,2.461,6.64c0,5.642-4.574,10.216-10.216,10.216
					H188.497c-0.67,0-1.323-0.069-1.957-0.192c1.874,2.186,4.65,3.576,7.755,3.576h104.108c5.642,0,10.216-4.574,10.216-10.216
					C308.618,326.385,305.065,322.247,300.359,321.333z"/>
			</g>
			<g>
				<path style="fill:#FFB5D1;" d="M270.267,331.357h-76.643c-1.584,0-2.868-1.284-2.868-2.868l0,0c0-1.584,1.284-2.868,2.868-2.868
					h76.643c1.584,0,2.868,1.284,2.868,2.868l0,0C273.135,330.073,271.851,331.357,270.267,331.357z"/>
				<path style="fill:#FFB5D1;" d="M281.516,328.489c0-1.584-1.284-2.868-2.868-2.868c-1.584,0-2.868,1.284-2.868,2.868
					s1.284,2.868,2.868,2.868C280.232,331.357,281.516,330.073,281.516,328.489z"/>
			</g>
		</g>
	</g>
	<g>
		<g>
			<polygon style="fill:#7320AE;" points="516.5,286.088 476.5,286.088 486.5,206.088 506.5,206.088 			"/>
			<path style="fill:#5D1A8C;" d="M480.554,253.655l-0.966,7.726c11.095-5.109,22.367-5.192,33.823,0l-0.966-7.726H480.554z"/>
		</g>
		<path style="fill:#3592EB;" d="M583.304,253.655H410.102c-3.258,0-5.899-2.641-5.899-5.899v-94.202
			c0-3.258,2.641-5.899,5.899-5.899h173.202c3.258,0,5.899,2.641,5.899,5.899v94.202
			C589.203,251.014,586.562,253.655,583.304,253.655z"/>
		<path style="fill:#102D4A;" d="M574.236,247.515H417.008c-2.557,0-4.629-2.073-4.629-4.629v-84.461
			c0-2.557,2.073-4.629,4.629-4.629h157.228c2.557,0,4.629,2.073,4.629,4.629v84.461
			C578.865,245.443,576.792,247.515,574.236,247.515z"/>
		<g>
			<g>
				<path style="fill:#F2BB88;" d="M523.27,194.756h-29.513c-0.448,0-0.811-0.363-0.811-0.811V177.54h31.135v16.405
					C524.081,194.393,523.718,194.756,523.27,194.756z"/>
				<path style="fill:#4AA6FF;" d="M524.081,179.783h-31.135v-4.471c0-0.635,0.515-1.15,1.151-1.15h28.834
					c0.635,0,1.151,0.515,1.151,1.15V179.783z"/>
				<g>
					<circle style="fill:#FFFFFF;" cx="520.148" cy="176.973" r="1.406"/>
					<circle style="fill:#FFFFFF;" cx="515.27" cy="176.973" r="1.406"/>
					<circle style="fill:#FFFFFF;" cx="510.392" cy="176.973" r="1.406"/>
				</g>
			</g>
			<g>
				<path style="fill:#F60C65;" d="M496.901,174.766c0-2.185-1.771-3.956-3.956-3.956c-2.185,0-3.956,1.771-3.956,3.956
					c0,2.185,1.771,3.956,3.956,3.956C495.13,178.722,496.901,176.951,496.901,174.766z"/>
				<g>
					<path style="fill:#FFFFFF;" d="M491.061,173.881l-0.639,0.198c-0.064-0.043-0.128-0.102-0.192-0.179
						c-0.064-0.077-0.096-0.183-0.096-0.32c0-0.255,0.156-0.434,0.466-0.537l0.715-0.243h0.237c0.183,0,0.328,0.053,0.434,0.16
						c0.107,0.107,0.16,0.251,0.16,0.434v3.329c-0.047,0.009-0.116,0.02-0.208,0.035c-0.091,0.015-0.184,0.022-0.278,0.022
						c-0.094,0-0.178-0.007-0.253-0.019c-0.074-0.013-0.137-0.039-0.188-0.077c-0.051-0.038-0.09-0.09-0.118-0.157
						c-0.028-0.066-0.042-0.152-0.042-0.259V173.881z"/>
					<path style="fill:#FFFFFF;" d="M494.185,172.75c0.243,0,0.458,0.031,0.645,0.093c0.188,0.062,0.347,0.146,0.479,0.252
						c0.132,0.107,0.232,0.232,0.301,0.377c0.068,0.145,0.102,0.3,0.102,0.466c0,0.447-0.253,0.873-0.76,1.278l-0.837,0.671h1.533
						c0.026,0.047,0.051,0.107,0.074,0.179c0.023,0.073,0.035,0.151,0.035,0.236c0,0.153-0.034,0.263-0.102,0.329
						c-0.068,0.066-0.158,0.099-0.268,0.099h-2.217c-0.094-0.064-0.167-0.146-0.221-0.246c-0.053-0.1-0.08-0.218-0.08-0.355
						c0-0.145,0.03-0.267,0.089-0.367c0.06-0.1,0.126-0.18,0.198-0.24l0.882-0.754c0.111-0.094,0.202-0.178,0.275-0.253
						c0.072-0.074,0.131-0.141,0.176-0.201c0.045-0.06,0.077-0.115,0.096-0.166c0.019-0.051,0.029-0.1,0.029-0.147
						c0-0.119-0.053-0.213-0.156-0.281c-0.105-0.068-0.234-0.102-0.387-0.102c-0.171,0-0.322,0.027-0.457,0.08
						c-0.134,0.053-0.246,0.11-0.335,0.169c-0.073-0.051-0.133-0.115-0.179-0.192c-0.047-0.077-0.07-0.166-0.07-0.269
						c0-0.221,0.104-0.386,0.313-0.495C493.551,172.805,493.832,172.75,494.185,172.75z"/>
				</g>
			</g>
		</g>
		<g>
			<path style="fill:#E6BFFF;" d="M569.027,230.216h-23.838c-0.537,0-0.973-0.436-0.973-0.973v-52.865
				c0-0.537,0.436-0.973,0.973-0.973h23.838c0.537,0,0.973,0.436,0.973,0.973v52.865C570,229.781,569.564,230.216,569.027,230.216z"
				/>
			<g>
				<g>
					<path style="fill:#9B44D1;" d="M565.994,225.382h-16.969c-0.712,0-1.288-0.577-1.288-1.288v-3.91
						c0-0.712,0.577-1.288,1.288-1.288h16.969c0.712,0,1.288,0.577,1.288,1.288v3.91
						C567.283,224.805,566.706,225.382,565.994,225.382z"/>
					<path style="fill:#9B44D1;" d="M565.994,215.166h-16.969c-0.712,0-1.288-0.577-1.288-1.288v-3.91
						c0-0.712,0.577-1.288,1.288-1.288h16.969c0.712,0,1.288,0.577,1.288,1.288v3.91
						C567.283,214.589,566.706,215.166,565.994,215.166z"/>
					<path style="fill:#9B44D1;" d="M565.994,204.949h-16.969c-0.712,0-1.288-0.577-1.288-1.288v-3.91
						c0-0.712,0.577-1.288,1.288-1.288h16.969c0.712,0,1.288,0.577,1.288,1.288v3.91
						C567.283,204.373,566.706,204.949,565.994,204.949z"/>
					<path style="fill:#9B44D1;" d="M565.994,194.733h-16.969c-0.712,0-1.288-0.577-1.288-1.288v-3.91
						c0-0.712,0.577-1.288,1.288-1.288h16.969c0.712,0,1.288,0.577,1.288,1.288v3.91
						C567.283,194.156,566.706,194.733,565.994,194.733z"/>
				</g>
			</g>
		</g>
		<g>
			<path style="fill:#D9EBFF;" d="M412.378,237.162v5.724c0,2.557,2.073,4.629,4.629,4.629h157.228c2.557,0,4.629-2.073,4.629-4.629
				v-5.724H412.378z"/>
			<g>
				<path style="fill:#7320AE;" d="M425.409,242.339c0-1.614-1.309-2.923-2.923-2.923c-1.614,0-2.923,1.309-2.923,2.923
					c0,1.614,1.309,2.923,2.923,2.923C424.101,245.262,425.409,243.953,425.409,242.339z"/>
				<path style="fill:#F672A4;" d="M459.694,245.262h-23.389c-0.587,0-1.062-0.476-1.062-1.062v-3.721
					c0-0.587,0.476-1.062,1.062-1.062h23.389c0.587,0,1.062,0.476,1.062,1.062v3.721
					C460.757,244.786,460.281,245.262,459.694,245.262z"/>
				<path style="fill:#F672A4;" d="M491.478,245.262h-23.389c-0.587,0-1.062-0.476-1.062-1.062v-3.721
					c0-0.587,0.476-1.062,1.062-1.062h23.389c0.587,0,1.062,0.476,1.062,1.062v3.721
					C492.54,244.786,492.065,245.262,491.478,245.262z"/>
				<path style="fill:#F672A4;" d="M523.262,245.262h-23.389c-0.587,0-1.062-0.476-1.062-1.062v-3.721
					c0-0.587,0.476-1.062,1.062-1.062h23.389c0.587,0,1.062,0.476,1.062,1.062v3.721
					C524.324,244.786,523.849,245.262,523.262,245.262z"/>
			</g>
		</g>
		<g>
			<g>
				<path style="fill:#F2D08C;" d="M515.689,203.648h-29.514c-0.448,0-0.811-0.363-0.811-0.811v-16.405H516.5v16.405
					C516.5,203.286,516.137,203.648,515.689,203.648z"/>
				<path style="fill:#4AA6FF;" d="M516.5,188.676h-31.135v-4.471c0-0.635,0.515-1.151,1.15-1.151h28.834
					c0.635,0,1.151,0.515,1.151,1.151V188.676z"/>
				<g>
					<circle style="fill:#FFFFFF;" cx="512.567" cy="185.865" r="1.406"/>
					<circle style="fill:#FFFFFF;" cx="507.689" cy="185.865" r="1.406"/>
					<circle style="fill:#FFFFFF;" cx="502.811" cy="185.865" r="1.406"/>
				</g>
			</g>
			<g>
				<path style="fill:#F60C65;" d="M489.39,183.68c0-2.185-1.771-3.956-3.956-3.956c-2.185,0-3.956,1.771-3.956,3.956
					c0,2.185,1.771,3.956,3.956,3.956C487.619,187.636,489.39,185.865,489.39,183.68z"/>
				<g>
					<path style="fill:#FFFFFF;" d="M483.364,182.834l-0.639,0.198c-0.064-0.043-0.128-0.102-0.192-0.179
						c-0.064-0.077-0.096-0.183-0.096-0.32c0-0.256,0.155-0.434,0.466-0.537l0.716-0.243h0.237c0.183,0,0.328,0.053,0.434,0.16
						c0.107,0.107,0.16,0.251,0.16,0.434v3.329c-0.047,0.008-0.117,0.02-0.208,0.035c-0.091,0.015-0.184,0.022-0.278,0.022
						c-0.094,0-0.178-0.007-0.253-0.019c-0.074-0.013-0.137-0.038-0.188-0.077c-0.051-0.038-0.09-0.09-0.118-0.157
						c-0.028-0.066-0.042-0.152-0.042-0.259V182.834z"/>
					<path style="fill:#FFFFFF;" d="M488.533,183.742c0,0.328-0.043,0.62-0.127,0.875c-0.085,0.256-0.204,0.47-0.355,0.642
						c-0.151,0.172-0.332,0.303-0.543,0.393c-0.211,0.089-0.44,0.134-0.687,0.134c-0.251,0-0.482-0.045-0.693-0.134
						c-0.211-0.09-0.392-0.221-0.543-0.393c-0.151-0.173-0.269-0.387-0.352-0.642c-0.083-0.255-0.125-0.547-0.125-0.875
						s0.042-0.619,0.125-0.872c0.083-0.253,0.2-0.466,0.352-0.639c0.151-0.173,0.332-0.304,0.543-0.393
						c0.211-0.089,0.442-0.134,0.693-0.134c0.247,0,0.476,0.045,0.687,0.134c0.211,0.089,0.392,0.221,0.543,0.393
						c0.151,0.172,0.269,0.386,0.355,0.639C488.49,183.123,488.533,183.414,488.533,183.742z M487.44,183.742
						c0-0.375-0.054-0.665-0.163-0.869c-0.109-0.205-0.263-0.307-0.463-0.307s-0.353,0.102-0.457,0.307
						c-0.104,0.204-0.157,0.494-0.157,0.869s0.053,0.666,0.157,0.872c0.104,0.206,0.257,0.31,0.457,0.31s0.355-0.103,0.463-0.31
						C487.386,184.407,487.44,184.117,487.44,183.742z"/>
				</g>
			</g>
		</g>
		<g>
			<path style="fill:#4AA6FF;" d="M463.629,164.676h-42.815c-0.691,0-1.25,0.56-1.25,1.25v58.796c0,0.691,0.56,1.251,1.25,1.251
				h42.815c0.691,0,1.251-0.56,1.251-1.251v-58.796C464.879,165.236,464.319,164.676,463.629,164.676z"/>
			<g>
				<path style="fill:#FFFFFF;" d="M457.838,173.892h-32.536c-0.836,0-1.514-0.678-1.514-1.514l0,0c0-0.836,0.678-1.514,1.514-1.514
					h32.536c0.836,0,1.514,0.678,1.514,1.514l0,0C459.351,173.214,458.674,173.892,457.838,173.892z"/>
				<path style="fill:#FFFFFF;" d="M442.378,180.378h-17.077c-0.836,0-1.514-0.678-1.514-1.514l0,0c0-0.836,0.678-1.514,1.514-1.514
					h17.077c0.836,0,1.514,0.678,1.514,1.514l0,0C443.892,179.701,443.214,180.378,442.378,180.378z"/>
				<path style="fill:#FFFFFF;" d="M442.378,186.865h-17.077c-0.836,0-1.514-0.678-1.514-1.514v0c0-0.836,0.678-1.514,1.514-1.514
					h17.077c0.836,0,1.514,0.678,1.514,1.514v0C443.892,186.187,443.214,186.865,442.378,186.865z"/>
				<path style="fill:#FFFFFF;" d="M433.189,193.351h-7.888c-0.836,0-1.514-0.678-1.514-1.514l0,0c0-0.836,0.678-1.514,1.514-1.514
					h7.888c0.836,0,1.514,0.678,1.514,1.514l0,0C434.703,192.674,434.025,193.351,433.189,193.351z"/>
				<path style="fill:#FFFFFF;" d="M446.378,199.838h-21.077c-0.836,0-1.514-0.678-1.514-1.514l0,0c0-0.836,0.678-1.513,1.514-1.513
					h21.077c0.836,0,1.514,0.678,1.514,1.513l0,0C447.892,199.16,447.214,199.838,446.378,199.838z"/>
				<path style="fill:#FFFFFF;" d="M457.838,206.324h-32.536c-0.836,0-1.514-0.678-1.514-1.513l0,0c0-0.836,0.678-1.514,1.514-1.514
					h32.536c0.836,0,1.514,0.678,1.514,1.514l0,0C459.351,205.647,458.674,206.324,457.838,206.324z"/>
			</g>
			<circle style="fill:#FFFFFF;" cx="425.953" cy="220.622" r="2.169"/>
			<path style="fill:#FFFFFF;" d="M436.473,220.622c0,1.198-0.971,2.169-2.169,2.169c-1.198,0-2.169-0.971-2.169-2.169
				c0-1.198,0.971-2.169,2.169-2.169C435.502,218.453,436.473,219.424,436.473,220.622z"/>
			<circle style="fill:#FFFFFF;" cx="442.655" cy="220.622" r="2.169"/>
		</g>
		<g>
			<g>
				<path style="fill:#F2E69C;" d="M508.108,212.54h-29.513c-0.448,0-0.811-0.363-0.811-0.811v-16.405h31.135v16.405
					C508.919,212.178,508.556,212.54,508.108,212.54z"/>
				<path style="fill:#4AA6FF;" d="M508.919,197.568h-31.135v-4.471c0-0.635,0.515-1.151,1.151-1.151h28.834
					c0.635,0,1.15,0.515,1.15,1.151V197.568z"/>
				<g>
					<path style="fill:#FFFFFF;" d="M506.392,194.757c0-0.776-0.629-1.406-1.406-1.406s-1.406,0.629-1.406,1.406
						c0,0.776,0.629,1.405,1.406,1.405S506.392,195.533,506.392,194.757z"/>
					<path style="fill:#FFFFFF;" d="M501.514,194.757c0-0.776-0.629-1.406-1.406-1.406s-1.406,0.629-1.406,1.406
						c0,0.776,0.629,1.405,1.406,1.405S501.514,195.533,501.514,194.757z"/>
					<path style="fill:#FFFFFF;" d="M496.635,194.757c0-0.776-0.629-1.406-1.406-1.406s-1.406,0.629-1.406,1.406
						c0,0.776,0.629,1.405,1.406,1.405S496.635,195.533,496.635,194.757z"/>
				</g>
			</g>
			<g>
				<path style="fill:#F60C65;" d="M482.324,192.594c0-2.184-1.771-3.955-3.956-3.955s-3.956,1.771-3.956,3.955
					c0,2.185,1.771,3.956,3.956,3.956S482.324,194.779,482.324,192.594z"/>
				<g>
					<path style="fill:#FFFFFF;" d="M479.531,190.626c0.072,0.047,0.137,0.112,0.195,0.195c0.058,0.083,0.086,0.186,0.086,0.31
						c0,0.068-0.006,0.138-0.019,0.208c-0.013,0.07-0.034,0.14-0.064,0.208l-1.329,3.01c-0.06,0.004-0.116,0.007-0.169,0.007
						c-0.053,0-0.103,0-0.15,0c-0.192,0-0.347-0.036-0.466-0.109c-0.12-0.072-0.179-0.198-0.179-0.377
						c0-0.089,0.021-0.186,0.064-0.291c0.042-0.105,0.1-0.229,0.172-0.374l0.933-1.91h-1.566c-0.025-0.047-0.051-0.109-0.077-0.185
						c-0.025-0.077-0.038-0.158-0.038-0.243c0-0.162,0.036-0.277,0.109-0.345c0.072-0.068,0.164-0.102,0.275-0.102H479.531z"/>
				</g>
			</g>
		</g>
		<g>
			<path style="opacity:0.11;fill:#FFFFFF;" d="M421.563,153.796h-4.556c-2.557,0-4.629,2.073-4.629,4.629v4.555
				C415.44,159.919,418.502,156.857,421.563,153.796z"/>
			<path style="opacity:0.11;fill:#FFFFFF;" d="M485.996,153.796h-23.42c-16.732,16.732-33.465,33.465-50.197,50.197v23.42
				L485.996,153.796z"/>
			<path style="opacity:0.11;fill:#FFFFFF;" d="M568.158,153.796h-41.15c-31.24,31.24-62.48,62.48-93.72,93.72h41.15
				C505.678,216.275,536.918,185.035,568.158,153.796z"/>
			<path style="opacity:0.11;fill:#FFFFFF;" d="M578.865,211.845v-27.745c-21.138,21.138-42.276,42.277-63.415,63.415h27.745
				C555.085,235.625,566.975,223.735,578.865,211.845z"/>
		</g>
	</g>
	<g>
		<path style="fill:#4090DE;" d="M252.166,170.41c0.926-1.324,1.851-2.647,2.777-3.971c0.663,1.97,0.931,4.072,0.786,6.146
			c2.504-2.033,3.84-5.415,3.401-8.61c1.107,0.973,1.934,2.262,2.357,3.675c0.248-2.277,0.174-4.589-0.218-6.846
			c0.981-0.831,1.421-2.249,1.081-3.49c-0.339-1.24-1.439-2.237-2.707-2.453c-0.614-1.949-1.922-3.671-3.635-4.785
			c0.588,1.717,0.743,3.581,0.446,5.372c-2.113-1.552-4.722-2.417-7.343-2.434c1.599,1.37,3.197,2.739,4.796,4.109l4.309,0.188
			l-11.252,17.863c0.266-0.075,0.525-0.171,0.77-0.288C249.647,173.965,250.948,172.151,252.166,170.41z"/>
		<path style="fill:#4090DE;" d="M139.486,211.562c-1.134-1.597-2.755-2.843-4.59-3.528c1.918,2.124,1.932,5.703,0.03,7.842
			c1.926,2.538,6.125,2.893,8.451,0.715c0.604,1.245,1.208,2.491,1.811,3.736c1.627-1.374,3.254-2.748,4.882-4.122
			c3.813,1.833,8.487,1.76,12.242-0.191c1.067-0.554,2.04-1.27,2.92-2.087l-24.461-0.521l2.059-3.375
			c-0.021-1.455-0.212-2.908-0.599-4.311C141.317,207.668,140.402,209.615,139.486,211.562z"/>
		<path style="fill:#4090DE;" d="M253.051,197.618c-0.94,0.106-1.177,1.35-1.169,2.296c0.026,2.933,0.053,5.865,0.079,8.798
			c-1.412-1.774-2.824-3.549-4.237-5.323c-1.641,3.982,1.2,8.927-0.877,12.7c-1.967,3.574-7.447,4.275-8.929,8.077
			c2.84-0.485,5.68-0.97,8.52-1.455c0.492,4.896,0.984,9.792,1.476,14.689c0.849-1.79,1.698-3.581,2.547-5.371
			c0.232,5.467,1.936,10.865,4.886,15.473c0.818,1.277,1.888,2.579,3.317,2.958l-6.722-30.742l4.499-11.947
			c-0.281-2.863-0.858-5.698-1.732-8.439C254.449,198.507,253.911,197.521,253.051,197.618z"/>
	</g>
</g>
</svg>
